<svg width="33" height="444" viewBox="0 0 33 444" fill="none" xmlns="http://www.w3.org/2000/svg">
<path d="M24.0566 10.3561C24.0566 16.0776 16.5283 20.9816 16.5283 20.9816C16.5283 20.9816 9 16.0776 9 10.3561C9 8.40516 9.79316 6.5341 11.205 5.15456C12.6168 3.77502 14.5317 3 16.5283 3C18.5249 3 20.4398 3.77502 21.8516 5.15456C23.2634 6.5341 24.0566 8.40516 24.0566 10.3561Z" stroke="#9597A1" stroke-width="2" stroke-linecap="round" stroke-linejoin="round"/>
<path d="M16.529 12.8083C17.9149 12.8083 19.0384 11.7105 19.0384 10.3563C19.0384 9.00212 17.9149 7.9043 16.529 7.9043C15.143 7.9043 14.0195 9.00212 14.0195 10.3563C14.0195 11.7105 15.143 12.8083 16.529 12.8083Z" stroke="#9597A1" stroke-width="2" stroke-linecap="round" stroke-linejoin="round"/>
<path d="M23 33.585L14.9649 42L23 50.415L20.5263 53L10 42L20.5263 31L23 33.585Z" fill="#C4CDD5"/>
<path d="M11 80.415L19.0351 72L11 63.585L13.4737 61L24 72L13.4737 83L11 80.415Z" fill="#C4CDD5"/>
<path fill-rule="evenodd" clip-rule="evenodd" d="M18.803 108.667C18.803 110.508 20.3022 112 22.1515 112C24.0008 112 25.5 110.508 25.5 108.667C25.5 106.826 24.0008 105.333 22.1515 105.333C21.2177 105.333 20.3738 105.714 19.7671 106.327L15.1317 103.17C15.1745 102.957 15.197 102.738 15.197 102.513C15.197 102.068 15.109 101.642 14.9496 101.254L20.0323 97.9142C20.6092 98.3839 21.3473 98.6667 22.1515 98.6667C24.0008 98.6667 25.5 97.1743 25.5 95.3333C25.5 93.4924 24.0008 92 22.1515 92C20.3022 92 18.803 93.4924 18.803 95.3333C18.803 95.8155 18.9062 96.2745 19.0917 96.6889L14.0501 100.001C13.462 99.4902 12.6916 99.1795 11.8485 99.1795C9.99917 99.1795 8.5 100.672 8.5 102.513C8.5 104.354 9.99917 105.846 11.8485 105.846C12.9119 105.846 13.8585 105.353 14.4714 104.585L18.9639 107.644C18.8594 107.966 18.803 108.31 18.803 108.667Z" fill="white"/>
<path d="M21 127H26M16 125H11.2C10.0799 125 9.51984 125 9.09202 125.218C8.71569 125.41 8.40973 125.716 8.21799 126.092C8 126.52 8 127.08 8 128.2V135.8C8 136.92 8 137.48 8.21799 137.908C8.40973 138.284 8.71569 138.59 9.09202 138.782C9.51984 139 10.0799 139 11.2 139H22.8C23.9201 139 24.4802 139 24.908 138.782C25.2843 138.59 25.5903 138.284 25.782 137.908C26 137.48 26 136.92 26 135.8V133M25.6067 135.738L20.5499 132.366C19.2669 131.511 18.6254 131.084 17.932 130.917C17.3192 130.771 16.6804 130.771 16.0677 130.917C15.3743 131.084 14.7328 131.511 13.4497 132.366L8.14746 135.901" stroke="#357960" stroke-width="2" stroke-linecap="round" stroke-linejoin="round"/>
<path d="M22 153C22.2626 152.737 22.5744 152.529 22.9176 152.387C23.2608 152.245 23.6286 152.172 24 152.172C24.3714 152.172 24.7392 152.245 25.0824 152.387C25.4256 152.529 25.7374 152.737 26 153C26.2626 153.263 26.471 153.575 26.6131 153.918C26.7553 154.261 26.8284 154.629 26.8284 155C26.8284 155.371 26.7553 155.739 26.6131 156.082C26.471 156.426 26.2626 156.737 26 157L12.5 170.5L7 172L8.5 166.5L22 153Z" stroke="#357960" stroke-width="2" stroke-linecap="round" stroke-linejoin="round"/>
<g filter="url(#filter0_f_54_440)">
<path d="M16.375 199.5C20.3791 199.5 23.625 196.254 23.625 192.25C23.625 188.246 20.3791 185 16.375 185C12.3709 185 9.125 188.246 9.125 192.25C9.125 196.254 12.3709 199.5 16.375 199.5Z" fill="#107028" fill-opacity="0.22"/>
</g>
<path d="M25.7222 185.967L18.0695 193.62L14.0417 189.592L8 195.633" stroke="#107028" stroke-width="1.125" stroke-linecap="round" stroke-linejoin="round"/>
<path d="M20.8887 185.967H25.722V190.8" stroke="#107028" stroke-width="1.125" stroke-linecap="round" stroke-linejoin="round"/>
<path d="M17 212L20.09 218.26L27 219.27L22 224.14L23.18 231.02L17 227.77L10.82 231.02L12 224.14L7 219.27L13.91 218.26L17 212Z" fill="#F6B91C" stroke="#F6B91C" stroke-width="0.9" stroke-linecap="round" stroke-linejoin="round"/>
<path d="M17 264C23.6274 264 29 258.627 29 252C29 245.373 23.6274 240 17 240C10.3726 240 5 245.373 5 252C5 258.627 10.3726 264 17 264Z" fill="#F5F5F5"/>
<path d="M10 255.082C10 254.668 10.3358 254.332 10.75 254.332H12.25C12.6642 254.332 13 254.668 13 255.082V259.332H10V255.082Z" fill="#797980"/>
<path d="M15 251.082C15 250.668 15.3358 250.332 15.75 250.332H17.25C17.6642 250.332 18 250.668 18 251.082V259.332H15V251.082Z" fill="#797980"/>
<path d="M20 246.082C20 245.668 20.3358 245.332 20.75 245.332H22.25C22.6642 245.332 23 245.668 23 246.082V259.332H20V246.082Z" fill="#797980"/>
<path d="M25 277H9C7.89543 277 7 277.895 7 279V289C7 290.105 7.89543 291 9 291H25C26.1046 291 27 290.105 27 289V279C27 277.895 26.1046 277 25 277Z" stroke="#797980" stroke-width="1.33333" stroke-linecap="round" stroke-linejoin="round"/>
<path d="M21 291V275C21 274.47 20.7893 273.961 20.4142 273.586C20.0391 273.211 19.5304 273 19 273H15C14.4696 273 13.9609 273.211 13.5858 273.586C13.2107 273.961 13 274.47 13 275V291" stroke="#797980" stroke-width="1.33333" stroke-linecap="round" stroke-linejoin="round"/>
<path d="M25 303H10C8.346 303 7 304.346 7 306V318C7 319.654 8.346 321 10 321H25C26.103 321 27 320.103 27 319V305C27 303.897 26.103 303 25 303ZM10 319C9.448 319 9 318.551 9 318V306C9 305.449 9.448 305 10 305H25V308H19C17.897 308 17 308.897 17 310V314C17 315.103 17.897 316 19 316H25.001V319H10ZM25 310V314H19V310H25Z" fill="#797980"/>
<path d="M28.3779 331.014C28.3239 330.883 28.2325 330.771 28.1152 330.693C27.9978 330.614 27.8598 330.572 27.7186 330.572H19.1472C18.9577 330.572 18.776 330.647 18.6421 330.781C18.5081 330.915 18.4329 331.097 18.4329 331.286C18.4329 331.476 18.5081 331.658 18.6421 331.792C18.776 331.925 18.9577 332.001 19.1472 332.001H25.9943L16.4993 341.496C16.4311 341.562 16.3767 341.64 16.3392 341.728C16.3018 341.815 16.2821 341.908 16.2813 342.003C16.2805 342.098 16.2985 342.192 16.3344 342.28C16.3704 342.368 16.4234 342.448 16.4905 342.515C16.5575 342.582 16.6373 342.635 16.7251 342.671C16.8128 342.707 16.9069 342.725 17.0017 342.724C17.0966 342.723 17.1903 342.703 17.2775 342.666C17.3646 342.628 17.4434 342.574 17.5093 342.506L27.0043 333.011V339.858C27.0043 340.047 27.0796 340.229 27.2135 340.363C27.3475 340.497 27.5292 340.572 27.7186 340.572C27.908 340.572 28.0897 340.497 28.2237 340.363C28.3576 340.229 28.4329 340.047 28.4329 339.858V331.286C28.4324 331.193 28.4138 331.1 28.3779 331.014Z" fill="#357960"/>
<path d="M24.856 340.573C24.6666 340.573 24.4849 340.648 24.351 340.782C24.217 340.916 24.1417 341.098 24.1417 341.287V350.47C24.1414 350.876 23.9799 351.266 23.6928 351.553C23.4057 351.84 23.0164 352.001 22.6103 352.002H8.53031C8.12427 352.001 7.73496 351.84 7.44785 351.553C7.16073 351.266 6.99926 350.876 6.99888 350.47V336.39C6.99926 335.984 7.16073 335.595 7.44785 335.308C7.73496 335.021 8.12427 334.859 8.53031 334.859H17.7132C17.9026 334.859 18.0843 334.784 18.2182 334.65C18.3522 334.516 18.4275 334.334 18.4275 334.145C18.4275 333.955 18.3522 333.773 18.2182 333.64C18.0843 333.506 17.9026 333.43 17.7132 333.43H8.53031C7.7455 333.431 6.99306 333.743 6.43811 334.298C5.88317 334.853 5.57107 335.606 5.57031 336.39V350.47C5.57107 351.255 5.88317 352.008 6.43811 352.563C6.99306 353.117 7.7455 353.43 8.53031 353.43H22.6103C23.3951 353.43 24.1476 353.117 24.7025 352.563C25.2575 352.008 25.5696 351.255 25.5703 350.47V341.287C25.5703 341.098 25.4951 340.916 25.3611 340.782C25.2272 340.648 25.0455 340.573 24.856 340.573Z" fill="#357960"/>
<path d="M5 371.61V371.577C5.30098 367.639 6.70732 364.686 9.15049 362.818C11.5605 360.918 14.1718 360.001 17.0166 360.001C19.9953 359.967 22.7737 360.985 25.2512 363.022C27.7618 365.025 29 368.012 29 371.881V372.119C29 376.023 27.7618 378.941 25.2512 380.944C22.7405 382.981 19.9621 384 16.9834 384H16.8495C13.9372 383.966 11.2595 382.947 8.7831 380.911C6.30566 378.908 5.03428 375.819 5.00107 371.609L5 371.61ZM16.2797 366.281V360.918H15.4764C15.3093 361.122 15.1754 361.359 15.0415 361.563C14.9076 361.767 14.7737 361.97 14.6398 362.208C14.506 362.412 14.3389 362.684 14.2382 362.887C14.1043 363.091 14.0036 363.294 13.9029 363.532C13.7016 363.872 13.5345 364.211 13.4006 364.516C13.2335 364.822 13.0996 365.128 12.9989 365.399C13.2003 365.535 13.4338 365.705 13.7016 365.807C14.0025 365.909 14.3046 366.011 14.6056 366.078C14.9408 366.147 15.2418 366.18 15.5096 366.214C15.8106 366.248 16.0783 366.282 16.2797 366.282V366.281ZM17.686 360.919V366.248C17.8531 366.248 18.0545 366.281 18.2548 366.248C18.4562 366.248 18.6897 366.214 18.891 366.179C19.2595 366.111 19.6943 366.01 20.0296 365.908C20.398 365.772 20.7322 365.603 20.9668 365.398C20.5651 364.414 20.1303 363.633 19.6943 362.886C19.2584 362.139 18.7571 361.494 18.2216 360.951V360.918H17.686V360.919ZM14.0711 361.224V361.19C13.8365 361.292 13.602 361.462 13.3342 361.564C13.0996 361.666 12.7986 361.802 12.5641 361.938C12.0949 362.175 11.6269 362.447 11.1577 362.752C10.7229 363.057 10.2869 363.397 9.91953 363.736C10.0534 363.872 10.2205 364.008 10.3544 364.11C10.4883 364.212 10.6554 364.348 10.8235 364.484C10.9574 364.552 11.1245 364.653 11.2927 364.789C11.4598 364.891 11.6611 365.027 11.8614 365.163C12.1292 364.551 12.397 363.907 12.7322 363.329C13.0675 362.717 13.4349 362.141 13.8033 361.631C13.8365 361.563 13.8708 361.495 13.9372 361.427C13.9704 361.393 14.0047 361.292 14.0711 361.224ZM24.3129 363.735V363.702C23.4764 363.056 22.7395 362.513 22.0036 362.174C21.2678 361.835 20.5309 361.495 19.8614 361.224C20.397 361.767 20.8661 362.446 21.1671 363.091C21.5023 363.77 21.8365 364.483 22.1043 365.161C22.2382 365.093 22.4053 365.026 22.6066 364.89C22.7737 364.788 23.0083 364.686 23.2097 364.585C23.411 364.449 23.5781 364.313 23.7784 364.177C23.9798 364.008 24.1801 363.872 24.314 363.736L24.3129 363.735ZM23.7441 371.305H27.5937C27.5937 370.05 27.3259 368.861 26.8235 367.639C26.3544 366.451 25.685 365.467 24.8484 364.618V364.585C24.6814 364.856 24.4468 365.094 24.2122 365.264C23.9444 365.433 23.7099 365.569 23.4421 365.705C23.275 365.807 23.1068 365.942 22.9398 366.01C22.7727 366.112 22.5381 366.179 22.371 366.281C22.5049 366.553 22.6388 366.858 22.7727 367.13C22.8733 367.435 23.0404 367.775 23.1079 368.08C23.3093 368.623 23.4432 369.2 23.5771 369.778C23.6777 370.287 23.7441 370.831 23.7441 371.305ZM11.6279 366.281V366.248C11.3602 366.112 11.0592 366.01 10.8246 365.874C10.59 365.705 10.3555 365.534 10.1552 365.398C9.95381 365.296 9.75351 365.16 9.58642 365.025C9.41933 364.889 9.28545 364.753 9.15156 364.617C8.28076 365.466 7.6456 366.416 7.24394 367.537C6.80908 368.657 6.50703 369.914 6.37314 371.272H10.4904C10.4904 370.321 10.6243 369.404 10.8589 368.488C11.0602 367.537 11.3602 366.825 11.6279 366.281ZM16.2797 371.272V367.368C16.0119 367.401 15.6767 367.401 15.3757 367.368C15.0404 367.334 14.7063 367.232 14.4053 367.13C14.1375 367.061 13.8022 366.994 13.5345 366.892C13.2335 366.823 12.9315 366.688 12.698 366.552C12.4966 366.892 12.3295 367.299 12.1956 367.74C12.0285 368.148 11.9278 368.589 11.8272 368.996C11.7597 369.403 11.7265 369.844 11.6933 370.218C11.6601 370.592 11.6258 370.965 11.6258 371.27H16.2786L16.2797 371.272ZM17.686 367.436V371.272H22.6398C22.6398 371.067 22.6398 370.831 22.6066 370.559C22.5392 370.321 22.506 370.016 22.4728 369.744C22.3721 369.337 22.2714 368.896 22.1375 368.489C22.0036 368.115 21.8697 367.741 21.7026 367.436C21.6352 367.267 21.5688 367.062 21.5013 366.927C21.4006 366.757 21.2999 366.655 21.2335 366.553C20.865 366.825 20.3627 366.994 19.7607 367.13C19.192 367.266 18.5226 367.401 17.9195 367.435H17.685L17.686 367.436ZM10.4894 372.391H6.37207C6.37207 372.968 6.47275 373.613 6.63984 374.394C6.80694 375.209 7.14219 375.956 7.51064 376.771C7.67773 377.178 7.8791 377.586 8.0794 377.993C8.31396 378.367 8.58174 378.774 8.84951 379.148C9.05088 379.012 9.25117 378.91 9.41826 378.808C9.61963 378.706 9.85313 378.57 10.0545 378.468C10.2891 378.366 10.5236 378.264 10.7914 378.128C11.026 378.026 11.327 377.89 11.6279 377.754C11.3602 376.906 11.0592 376.091 10.8578 375.174C10.6232 374.291 10.4894 373.409 10.4894 372.425V372.391ZM16.2797 376.363V372.391H11.6269C11.6269 372.663 11.6601 373.07 11.7275 373.478C11.7607 373.885 11.8614 374.326 11.9289 374.768C12.0628 375.244 12.1635 375.719 12.2974 376.126C12.4312 376.533 12.5651 376.873 12.699 377.178C13.302 376.941 13.904 376.771 14.3057 376.669C14.7405 376.533 15.1422 376.431 15.5438 376.397H15.9123C16.0462 376.364 16.1801 376.364 16.2808 376.364L16.2797 376.363ZM17.686 372.391V376.329C17.9206 376.363 18.1884 376.397 18.4562 376.431C18.7571 376.465 19.1256 376.533 19.4266 376.601L19.9289 376.703C20.096 376.771 20.2974 376.805 20.4645 376.838C20.6658 376.907 20.8661 376.941 21.0675 377.008C21.2346 377.076 21.4027 377.11 21.5366 377.177C21.9715 376.057 22.2393 375.141 22.4074 374.36C22.5745 373.612 22.642 372.968 22.642 372.425V372.391H17.6882H17.686ZM27.5937 372.425V372.391H23.7441V372.596C23.7109 373.241 23.6103 373.987 23.4764 374.768C23.3425 375.515 23.0415 376.397 22.6398 377.484C23.1754 377.755 23.6777 378.027 24.0794 378.298C24.4811 378.57 24.8495 378.875 25.1173 379.147C25.686 378.57 26.1884 377.789 26.6232 376.77C27.0581 375.786 27.3602 374.767 27.5272 373.681C27.5605 373.477 27.5605 373.273 27.5947 373.069V372.424L27.5937 372.425ZM16.2797 382.744V377.449C15.4432 377.585 14.7395 377.754 14.2039 377.89C13.6684 378.026 13.2667 378.162 12.9989 378.297C13.2003 378.807 13.4006 379.248 13.602 379.655C13.8033 380.029 14.0368 380.436 14.2382 380.775C14.3057 380.911 14.4396 381.047 14.5392 381.216C14.6398 381.352 14.7063 381.521 14.8069 381.657C14.9076 381.826 15.0083 382.031 15.1079 382.234C15.2418 382.403 15.3425 382.607 15.4764 382.743L16.2797 382.744ZM17.686 382.744H18.4562C18.7571 382.506 19.0592 382.168 19.2927 381.794C19.5605 381.42 19.8614 380.979 20.0628 380.606C20.2974 380.165 20.5319 379.757 20.7322 379.35C20.9325 378.943 21.1007 378.569 21.2346 378.297C20.8661 378.162 20.3638 378.026 19.8625 377.89C19.3612 377.754 18.6575 377.618 17.6871 377.483V382.744H17.686ZM24.3129 379.961V379.928C24.2454 379.826 24.1115 379.69 24.0119 379.588C23.9123 379.486 23.7441 379.35 23.5771 379.248C23.4432 379.146 23.2761 379.044 23.0747 378.943C22.8733 378.841 22.6056 378.705 22.3721 378.569C22.2382 378.84 22.0036 379.316 21.6694 379.96C21.3685 380.606 20.8329 381.387 20.1635 382.235C21 382.099 21.7369 381.794 22.4063 381.387C23.1433 381.013 23.7784 380.503 24.314 379.96L24.3129 379.961ZM11.8614 378.875V378.841C11.6269 378.977 11.2584 379.147 10.891 379.317C10.4894 379.487 10.0545 379.691 9.65283 379.962C9.8874 380.167 10.122 380.37 10.3223 380.506C10.5236 380.675 10.7571 380.811 10.9585 380.947C11.327 381.184 11.7618 381.422 12.1967 381.625C12.6315 381.829 13.1671 382.033 13.8365 382.237C13.602 381.965 13.4349 381.625 13.2678 381.354C13.1007 381.082 12.8993 380.811 12.7322 380.539C12.5651 380.268 12.4312 379.962 12.2974 379.691C12.1303 379.419 11.9964 379.148 11.8625 378.876L11.8614 378.875Z" fill="#357960"/>
<path d="M26 400.469C26 406.408 18 411.499 18 411.499C18 411.499 10 406.408 10 400.469C10 398.443 10.8429 396.501 12.3431 395.069C13.8434 393.637 15.8783 392.832 18 392.832C20.1217 392.832 22.1566 393.637 23.6569 395.069C25.1571 396.501 26 398.443 26 400.469Z" stroke="#357960" stroke-width="2" stroke-linecap="round" stroke-linejoin="round"/>
<path d="M17.9987 403.722C19.4715 403.722 20.6654 402.528 20.6654 401.055C20.6654 399.583 19.4715 398.389 17.9987 398.389C16.5259 398.389 15.332 399.583 15.332 401.055C15.332 402.528 16.5259 403.722 17.9987 403.722Z" stroke="#357960" stroke-width="2" stroke-linecap="round" stroke-linejoin="round"/>
<g clip-path="url(#clip0_54_440)">
<g clip-path="url(#clip1_54_440)">
<g clip-path="url(#clip2_54_440)">
<path d="M19 440C24.5228 440 29 435.523 29 430C29 424.477 24.5228 420 19 420C13.4772 420 9 424.477 9 430C9 435.523 13.4772 440 19 440Z" fill="#DDEEE4"/>
<path d="M13.167 432.499C13.167 432.039 13.5401 431.666 14.0003 431.666H14.8337C15.2939 431.666 15.667 432.039 15.667 432.499V435.833H13.167V432.499Z" fill="#357960"/>
<path d="M17.333 429.167C17.333 428.707 17.7061 428.334 18.1663 428.334H18.9997C19.4599 428.334 19.833 428.707 19.833 429.167V435.834H17.333V429.167Z" fill="#357960"/>
<path d="M21.5 424.999C21.5 424.539 21.8731 424.166 22.3333 424.166H23.1667C23.6269 424.166 24 424.539 24 424.999V435.833H21.5V424.999Z" fill="#357960"/>
</g>
</g>
</g>
<defs>
<filter id="filter0_f_54_440" x="0.125" y="176" width="32.5" height="32.5" filterUnits="userSpaceOnUse" color-interpolation-filters="sRGB">
<feFlood flood-opacity="0" result="BackgroundImageFix"/>
<feBlend mode="normal" in="SourceGraphic" in2="BackgroundImageFix" result="shape"/>
<feGaussianBlur stdDeviation="4.5" result="effect1_foregroundBlur_54_440"/>
</filter>
<clipPath id="clip0_54_440">
<path d="M9 422C9 420.895 9.89543 420 11 420H27C28.1046 420 29 420.895 29 422V440H9V422Z" fill="white"/>
</clipPath>
<clipPath id="clip1_54_440">
<rect width="20" height="20" fill="white" transform="translate(9 420)"/>
</clipPath>
<clipPath id="clip2_54_440">
<rect width="20" height="20" fill="white" transform="translate(9 420)"/>
</clipPath>
</defs>
</svg>
