<svg width="64" height="205" fill="none" xmlns="http://www.w3.org/2000/svg"><mask id="a" style="mask-type:luminance" maskUnits="userSpaceOnUse" x="3" y="181" width="24" height="24"><path d="M3 181h24v24H3v-24Z" fill="#fff"/></mask><g mask="url(#a)" stroke="#979797" stroke-width="1.5" stroke-linejoin="round"><path d="M21.704 192.002c0 5.128-6.593 9.524-6.593 9.524s-6.594-4.396-6.594-9.524a6.595 6.595 0 0 1 11.256-4.663 6.595 6.595 0 0 1 1.932 4.663h-.001Z"/><path d="M15.11 194.546a2.158 2.158 0 1 0 0-4.316 2.158 2.158 0 0 0 0 4.316Z"/></g><rect x="3" y="145" width="24" height="24" rx="12" fill="#41886C"/><path d="M15 151v12M9 157h12" stroke="#fff" stroke-width="2" stroke-linecap="round" stroke-linejoin="round"/><path d="M3 87h18M19 87v14a2 2 0 0 1-2 2H7a2 2 0 0 1-2-2V87m3 0v-2a2 2 0 0 1 2-2h4a2 2 0 0 1 2 2v2M10 92v6M14 92v6" stroke="#B3261E" stroke-width="2" stroke-linecap="round" stroke-linejoin="round"/><g clip-path="url(#b)" stroke="#0086FD" stroke-width="1.455" stroke-linecap="round" stroke-linejoin="round"><path d="M10.999 131.666a6.667 6.667 0 1 0 0-13.334 6.667 6.667 0 0 0 0 13.334ZM11 127.667V125M11 122.332h.006"/></g><path d="M19.999 57.2H4.825A1.802 1.802 0 0 1 3 55.375v-12.55C3 41.8 3.799 41 4.825 41H20c.684 0 1.14.57 1.14 1.14v13.92c.114.684-.456 1.14-1.14 1.14Z" stroke="#6E6E73" stroke-width="1.2" stroke-miterlimit="10"/><path d="M20.683 52.751h-6.959a.78.78 0 0 1-.799-.798v-5.705a.78.78 0 0 1 .8-.798h6.958" stroke="#6E6E73" stroke-width="1.2" stroke-miterlimit="10"/><path d="M59.999 57.2H44.825A1.802 1.802 0 0 1 43 55.375v-12.55C43 41.8 43.799 41 44.825 41H60c.684 0 1.14.57 1.14 1.14v13.92c.114.684-.456 1.14-1.14 1.14Z" stroke="#9299A1" stroke-width="1.2" stroke-miterlimit="10"/><path d="M60.683 52.751h-6.959a.78.78 0 0 1-.798-.798v-5.705a.78.78 0 0 1 .798-.798h6.96" stroke="#9299A1" stroke-width="1.2" stroke-miterlimit="10"/><path d="M19.314 7.429H4.686a1.811 1.811 0 0 0-1.829 1.795v8.98A1.81 1.81 0 0 0 4.686 20h14.628a1.813 1.813 0 0 0 1.829-1.795v-8.98a1.812 1.812 0 0 0-1.829-1.796Z" stroke="#A5A5A5" stroke-linejoin="round"/><path d="M15.429 20V5.778a1.811 1.811 0 0 0-.502-1.257A1.685 1.685 0 0 0 13.714 4h-3.428a1.683 1.683 0 0 0-1.213.521 1.811 1.811 0 0 0-.501 1.257V20" stroke="#A5A5A5" stroke-linecap="round" stroke-linejoin="round"/><path d="M59.314 7.429H44.686a1.811 1.811 0 0 0-1.829 1.795v8.98A1.811 1.811 0 0 0 44.686 20h14.628a1.813 1.813 0 0 0 1.829-1.795v-8.98a1.812 1.812 0 0 0-1.829-1.796Z" stroke="#1D1D1F" stroke-linejoin="round"/><path d="M55.429 20V5.778a1.811 1.811 0 0 0-.502-1.257A1.685 1.685 0 0 0 53.714 4h-3.428a1.683 1.683 0 0 0-1.213.521 1.811 1.811 0 0 0-.502 1.257V20" stroke="#1D1D1F" stroke-linecap="round" stroke-linejoin="round"/><defs><clipPath id="b"><path fill="#fff" transform="translate(3 117)" d="M0 0h16v16H0z"/></clipPath></defs></svg>