<svg width="359" height="88" viewBox="0 0 359 88" fill="none" xmlns="http://www.w3.org/2000/svg">
<path d="M67.5011 46.2332C67.5011 45.3699 67.4296 44.7399 67.2749 44.0865H57.2153V47.9832H63.1201C63.0011 48.9516 62.3582 50.4099 60.9296 51.3898L60.9095 51.5203L64.0902 53.935L64.3106 53.9565C66.3344 52.1249 67.5011 49.4298 67.5011 46.2332Z" fill="#4285F4"/>
<path d="M57.2147 56.4998C60.1076 56.4998 62.5361 55.5664 64.31 53.9564L60.929 51.3897C60.0242 52.0081 58.8099 52.4397 57.2147 52.4397C54.3815 52.4397 51.9767 50.608 51.1195 48.0764L50.9938 48.0868L47.6866 50.5952L47.6433 50.713C49.4052 54.143 53.0243 56.4998 57.2147 56.4998Z" fill="#34A853"/>
<path d="M51.1197 48.0767C50.8935 47.4234 50.7626 46.7234 50.7626 46.0001C50.7626 45.2767 50.8935 44.5767 51.1078 43.9234L51.1018 43.7842L47.7531 41.2356L47.6436 41.2867C46.9174 42.7101 46.5007 44.3084 46.5007 46.0001C46.5007 47.6917 46.9174 49.29 47.6436 50.7134L51.1197 48.0767Z" fill="#FBBC05"/>
<path d="M57.2148 39.56C59.2267 39.56 60.5838 40.4116 61.3577 41.1233L64.3814 38.23C62.5244 36.5383 60.1076 35.5 57.2148 35.5C53.0243 35.5 49.4052 37.8567 47.6433 41.2866L51.1076 43.9233C51.9767 41.3917 54.3815 39.56 57.2148 39.56Z" fill="#EB4335"/>
<rect x="94.5" y="24.5" width="39" height="39" rx="19.5" stroke="#EEEEF2"/>
<path d="M124.5 44C124.5 41.2152 123.394 38.5445 121.425 36.5754C119.455 34.6063 116.785 33.5 114 33.5C111.356 33.4976 108.808 34.4927 106.866 36.2866C104.924 38.0805 103.73 40.5412 103.523 43.177C103.315 45.8129 104.11 48.4299 105.748 50.5053C107.386 52.5807 109.747 53.9617 112.359 54.3725V47.0345H109.695V44H112.36V41.687C112.36 39.056 113.928 37.601 116.326 37.601C117.475 37.601 118.677 37.8065 118.677 37.8065V40.391H117.352C116.047 40.391 115.642 41.201 115.642 42.0305V44H118.554L118.089 47.0345H115.641V54.3725C118.111 53.9814 120.36 52.7219 121.984 50.8204C123.608 48.919 124.5 46.5005 124.5 44Z" fill="#1877F2"/>
<path d="M118.088 47.0345L118.553 44H115.641V42.0305C115.641 41.201 116.046 40.391 117.351 40.391H118.676V37.805C118.676 37.805 117.474 37.5995 116.325 37.5995C113.925 37.5995 112.359 39.0545 112.359 41.6855V44H109.695V47.0345H112.361V54.3725C113.448 54.5436 114.555 54.5436 115.643 54.3725V47.0345H118.088Z" fill="white"/>
<rect x="154.5" y="24.5" width="39" height="39" rx="19.5" stroke="#EEEEF2"/>
<path d="M174 55.6667C180.443 55.6667 185.667 50.4434 185.667 44C185.667 37.5567 180.443 32.3334 174 32.3334C167.557 32.3334 162.333 37.5567 162.333 44C162.333 50.4434 167.557 55.6667 174 55.6667Z" fill="#0077B5"/>
<path fill-rule="evenodd" clip-rule="evenodd" d="M170.952 38.3323C170.952 39.0586 170.399 39.6463 169.534 39.6463C168.703 39.6463 168.15 39.0586 168.167 38.3323C168.15 37.5707 168.703 37 169.551 37C170.399 37 170.935 37.5707 170.952 38.3323ZM168.237 49.1445V40.6844H170.866V49.1439L168.237 49.1445Z" fill="white"/>
<path fill-rule="evenodd" clip-rule="evenodd" d="M172.973 43.3843C172.973 42.3291 172.938 41.4295 172.903 40.6856H175.187L175.308 41.8446H175.36C175.706 41.3081 176.571 40.4957 177.972 40.4957C179.702 40.4957 181 41.6376 181 44.1277V49.1456H178.37V44.4572C178.37 43.3667 177.99 42.6233 177.039 42.6233C176.312 42.6233 175.88 43.1249 175.707 43.609C175.637 43.7823 175.603 44.024 175.603 44.2668V49.1456H172.974V43.3843H172.973Z" fill="white"/>
<rect x="214.5" y="24.5" width="39" height="39" rx="19.5" stroke="#EEEEF2"/>
<path fill-rule="evenodd" clip-rule="evenodd" d="M234 32.625C227.716 32.625 222.625 37.7113 222.625 43.9886C222.625 49.0099 225.885 53.2674 230.404 54.7705C230.973 54.8745 231.181 54.5235 231.181 54.2229C231.181 53.9531 231.171 53.2381 231.164 52.2891C228.001 52.9765 227.334 50.7665 227.334 50.7665C226.816 49.4535 226.07 49.1041 226.07 49.1041C225.038 48.3989 226.148 48.4135 226.148 48.4135C227.29 48.4948 227.892 49.5835 227.892 49.5835C228.906 51.3223 230.553 50.8185 231.202 50.5293C231.304 49.7948 231.598 49.2943 231.923 49.0099C229.398 48.7239 226.743 47.7489 226.743 43.3939C226.743 42.154 227.186 41.1384 227.913 40.3454C227.796 40.0578 227.406 38.9024 228.026 37.3391C228.026 37.3391 228.979 37.032 231.153 38.5026C232.081 38.2498 233.038 38.1209 234 38.1191C234.967 38.124 235.94 38.2491 236.849 38.5026C239.02 37.032 239.973 37.3375 239.973 37.3375C240.594 38.9024 240.204 40.0578 240.087 40.3438C240.815 41.14 241.257 42.154 241.257 43.3939C241.257 47.7586 238.595 48.7206 236.062 49.0001C236.47 49.3511 236.834 50.045 236.834 51.1061C236.834 52.6239 236.819 53.8491 236.819 54.2229C236.819 54.5268 237.026 54.8794 237.603 54.7689C239.865 54.0144 241.833 52.5674 243.228 50.6328C244.623 48.6981 245.374 46.3737 245.375 43.9886C245.373 40.9734 244.174 38.0823 242.041 35.9512C239.908 33.8202 237.015 32.6237 234 32.625Z" fill="#161514"/>
<rect x="274.5" y="24.5" width="39" height="39" rx="19.5" stroke="#EEEEF2"/>
<mask id="mask0_2042_80" style="mask-type:luminance" maskUnits="userSpaceOnUse" x="283" y="35" width="22" height="24">
<path d="M304.5 35H283.5V59H304.5V35Z" fill="white"/>
</mask>
<g mask="url(#mask0_2042_80)">
<path d="M292.166 54.9186C292.644 54.9186 293.113 54.8747 293.572 54.7868C293.635 54.7771 293.694 54.7624 293.757 54.7477C293.777 54.7477 293.796 54.738 293.821 54.7331C293.86 54.7233 293.899 54.7185 293.933 54.7087C293.967 54.699 293.996 54.694 294.03 54.6843C294.055 54.6794 294.084 54.6696 294.109 54.6648C294.148 54.655 294.182 54.6453 294.221 54.6355C294.24 54.6306 294.26 54.6257 294.279 54.6208C294.319 54.6111 294.362 54.5964 294.402 54.5866C294.416 54.5818 294.431 54.5769 294.45 54.572C294.494 54.5574 294.538 54.5427 294.577 54.5281C294.592 54.5281 294.602 54.5183 294.616 54.5134C294.66 54.4988 294.704 54.4841 294.753 54.4646C294.763 54.4646 294.773 54.4597 294.782 54.4548C294.831 54.4353 294.88 54.4207 294.929 54.4011C294.929 54.4011 294.934 54.4011 294.939 54.4011C295.149 54.3181 295.354 54.2302 295.554 54.1326C295.603 54.1082 295.651 54.0838 295.7 54.0594C295.7 54.0594 295.705 54.0594 295.71 54.0594C295.754 54.035 295.803 54.0106 295.847 53.9862C295.847 53.9862 295.856 53.9862 295.861 53.9813C295.905 53.9569 295.949 53.9325 295.993 53.908C296.003 53.9032 296.013 53.8983 296.017 53.8934C296.057 53.869 296.096 53.8495 296.135 53.8251C296.144 53.8202 296.154 53.8153 296.164 53.8055C296.203 53.7811 296.247 53.7567 296.286 53.7323C296.291 53.7323 296.296 53.7274 296.301 53.7225C296.491 53.6053 296.677 53.4784 296.852 53.3466C296.896 53.3173 296.935 53.2831 296.974 53.2539C296.974 53.2539 296.984 53.249 296.984 53.2441C297.023 53.2148 297.062 53.1855 297.096 53.1562C297.106 53.1513 297.111 53.1416 297.121 53.1367C297.155 53.1074 297.189 53.083 297.223 53.0537C297.233 53.0439 297.248 53.0341 297.258 53.0244C297.292 52.9951 297.326 52.9658 297.36 52.9365C297.37 52.9317 297.375 52.9219 297.384 52.917C297.424 52.8828 297.458 52.8487 297.497 52.8145C297.497 52.8145 297.497 52.8145 297.502 52.8145C297.663 52.668 297.819 52.5118 297.97 52.3556C297.98 52.3458 297.985 52.3409 297.99 52.3312C298.019 52.297 298.053 52.2628 298.083 52.2335C298.092 52.2238 298.107 52.2091 298.117 52.1994C298.141 52.1701 298.17 52.1407 298.195 52.1115C298.21 52.0968 298.224 52.0773 298.239 52.0626C298.263 52.0333 298.293 51.9992 298.317 51.9699C298.332 51.9552 298.341 51.9406 298.356 51.9259C298.385 51.8918 298.41 51.8625 298.434 51.8283C298.444 51.8137 298.454 51.8039 298.463 51.7893C298.488 51.7551 298.517 51.7209 298.542 51.6867C298.551 51.6721 298.566 51.6574 298.576 51.6428C298.576 51.6428 298.576 51.6379 298.581 51.633C298.605 51.6037 298.629 51.5695 298.654 51.5403C298.722 51.4475 298.79 51.3547 298.859 51.262C298.859 51.262 298.859 51.262 298.859 51.2571C298.883 51.2229 298.908 51.1839 298.932 51.1497C298.942 51.1351 298.952 51.1204 298.966 51.1009C298.986 51.0667 299.01 51.0374 299.03 51.0033C299.044 50.9837 299.054 50.9642 299.069 50.9446C299.088 50.9154 299.108 50.8861 299.127 50.8568C299.142 50.8324 299.157 50.808 299.171 50.7835C299.191 50.7543 299.21 50.7201 299.23 50.6908C299.24 50.6713 299.254 50.6517 299.264 50.6322C299.284 50.598 299.303 50.5639 299.323 50.5297C299.328 50.52 299.332 50.5102 299.342 50.5004C299.352 50.4858 299.357 50.476 299.367 50.4613C299.386 50.4321 299.401 50.3979 299.42 50.3686C299.435 50.3442 299.445 50.3197 299.459 50.2954C299.459 50.2954 299.459 50.2954 299.459 50.2905C299.474 50.2612 299.489 50.2319 299.508 50.2026C299.528 50.1636 299.547 50.1245 299.567 50.0854C299.576 50.0659 299.586 50.0512 299.591 50.0317C299.606 50.0073 299.616 49.978 299.63 49.9488C299.645 49.9194 299.66 49.8901 299.674 49.8609C299.689 49.8316 299.703 49.8023 299.713 49.773C299.728 49.7437 299.742 49.7144 299.752 49.6851C299.767 49.6558 299.777 49.6265 299.791 49.5972C299.806 49.5679 299.821 49.5337 299.83 49.5045C299.84 49.48 299.855 49.4508 299.865 49.4263C299.879 49.3971 299.889 49.3678 299.899 49.3385C299.899 49.3336 299.899 49.3287 299.904 49.3239C299.913 49.2945 299.928 49.2652 299.938 49.2408C299.952 49.2067 299.967 49.1725 299.977 49.1383C299.987 49.109 300.001 49.0797 300.011 49.0553C300.021 49.0212 300.035 48.9919 300.045 48.9577C300.055 48.9284 300.07 48.8942 300.079 48.8649C300.089 48.8308 300.104 48.7966 300.114 48.7624C300.123 48.7331 300.133 48.7038 300.143 48.6745C300.162 48.6159 300.182 48.5525 300.201 48.4939C300.211 48.4646 300.221 48.4353 300.226 48.4109C300.236 48.3718 300.25 48.3377 300.26 48.2986C300.27 48.2742 300.275 48.2498 300.279 48.2254C300.279 48.2254 300.279 48.2254 300.279 48.2205C300.289 48.1815 300.304 48.1424 300.314 48.1033C300.319 48.0789 300.328 48.0545 300.333 48.0252C300.333 48.0252 300.333 48.0252 300.333 48.0204C300.343 47.9862 300.353 47.9471 300.362 47.913C300.367 47.8836 300.377 47.8593 300.382 47.8299C300.392 47.7909 300.402 47.7518 300.411 47.7128C300.416 47.6835 300.426 47.6591 300.431 47.6298C300.441 47.5858 300.45 47.5468 300.46 47.5029C300.465 47.4784 300.47 47.454 300.475 47.4296C300.485 47.3857 300.494 47.3418 300.499 47.2978C300.499 47.2978 300.499 47.2929 300.499 47.2881C300.499 47.2636 300.509 47.2441 300.514 47.2197C300.524 47.1611 300.538 47.1025 300.548 47.0439C300.548 47.0342 300.548 47.0293 300.548 47.0195C300.558 46.9609 300.568 46.8975 300.577 46.834C300.577 46.8291 300.577 46.8193 300.577 46.8145C300.577 46.7901 300.582 46.7656 300.587 46.7413C300.587 46.7315 300.587 46.7266 300.587 46.7169C300.592 46.6778 300.597 46.6387 300.602 46.5997C300.602 46.5753 300.607 46.5508 300.611 46.5264C300.616 46.4825 300.621 46.4386 300.626 46.3995C300.626 46.3702 300.631 46.3409 300.636 46.3116C300.636 46.2677 300.646 46.2238 300.651 46.1847C300.651 46.1603 300.651 46.131 300.66 46.1066C300.66 46.0627 300.67 46.0187 300.67 45.9748C300.67 45.9455 300.67 45.9211 300.675 45.8918C300.675 45.8478 300.68 45.8039 300.685 45.7648C300.685 45.7356 300.685 45.7063 300.69 45.677C300.69 45.633 300.69 45.594 300.694 45.55C300.694 45.5208 300.694 45.4915 300.694 45.4621C300.694 45.3889 300.694 45.3206 300.699 45.2473C300.699 45.1888 300.699 45.1302 300.699 45.0716C300.699 45.013 300.699 44.9544 300.699 44.8959C300.699 44.8372 300.699 44.7835 300.694 44.725C300.694 44.6664 300.69 44.6127 300.685 44.5541C300.685 44.5004 300.675 44.4418 300.67 44.3881C300.66 44.2758 300.651 44.1636 300.636 44.0562C300.626 43.9829 300.616 43.9097 300.602 43.8364C300.602 43.8218 300.597 43.8023 300.592 43.7877C300.582 43.7144 300.568 43.6411 300.553 43.5679C300.533 43.4605 300.509 43.3531 300.485 43.2506C300.46 43.1481 300.431 43.0407 300.402 42.9382C300.372 42.8356 300.338 42.7331 300.304 42.6306C300.236 42.4304 300.157 42.2352 300.074 42.0399C300.03 41.9422 299.987 41.8495 299.943 41.7567C299.918 41.7128 299.899 41.664 299.874 41.62C299.865 41.6005 299.855 41.5858 299.845 41.5663C299.806 41.4931 299.767 41.4199 299.723 41.3466C299.699 41.3027 299.669 41.2587 299.645 41.2148C299.591 41.127 299.537 41.0439 299.479 40.9561C299.381 40.8096 299.274 40.6631 299.166 40.5264C299.152 40.5069 299.137 40.4874 299.122 40.4727C299.059 40.3946 298.996 40.3214 298.927 40.2433C298.913 40.2238 298.893 40.2042 298.878 40.1896C298.864 40.1701 298.844 40.1554 298.83 40.1359C298.795 40.1017 298.761 40.0627 298.727 40.0285C298.659 39.9601 298.585 39.8918 298.517 39.8234C298.483 39.7893 298.444 39.7551 298.41 39.7258C298.371 39.6916 298.336 39.6623 298.297 39.6282C298.185 39.5354 298.073 39.4426 297.956 39.3596C297.643 39.1351 297.306 38.9398 296.96 38.7836C296.916 38.764 296.872 38.7445 296.828 38.725C296.784 38.7055 296.745 38.6908 296.701 38.6762C296.686 38.6713 296.672 38.6664 296.657 38.6615C296.628 38.6518 296.598 38.642 296.569 38.6273C296.555 38.6225 296.54 38.6176 296.52 38.6127C296.491 38.6029 296.467 38.5932 296.437 38.5834C296.418 38.5785 296.403 38.5736 296.384 38.5688C296.359 38.559 296.335 38.5541 296.31 38.5443C296.291 38.5395 296.271 38.5346 296.252 38.5248C296.227 38.5199 296.203 38.5102 296.179 38.5053C296.159 38.5053 296.14 38.4955 296.125 38.4906C296.1 38.4858 296.071 38.476 296.047 38.4711C296.027 38.4711 296.008 38.4614 295.988 38.4565C295.944 38.4467 295.9 38.4369 295.856 38.4272C295.812 38.4174 295.769 38.4076 295.725 38.4028C295.71 38.4028 295.69 38.3979 295.676 38.393C295.646 38.393 295.622 38.3832 295.593 38.3784C295.573 38.3784 295.549 38.3735 295.529 38.3686C295.505 38.3686 295.48 38.3637 295.456 38.3588C295.437 38.3588 295.417 38.3588 295.397 38.3539C295.368 38.3539 295.344 38.3491 295.314 38.3442C295.295 38.3442 295.28 38.3442 295.261 38.3442C295.231 38.3442 295.202 38.3442 295.173 38.3393C295.153 38.3393 295.139 38.3393 295.119 38.3393C295.085 38.3393 295.051 38.3393 295.017 38.3393C295.007 38.3393 294.992 38.3393 294.983 38.3393C294.934 38.3393 294.89 38.3393 294.841 38.3393C294.358 38.3393 293.889 38.4076 293.44 38.5346C295.993 39.2571 297.892 41.908 297.892 45.0716C297.892 48.2352 295.998 50.8861 293.44 51.6086C292.991 51.7356 292.522 51.8039 292.034 51.8039C291.985 51.8039 291.936 51.8039 291.887 51.8039C291.839 51.8039 291.79 51.8039 291.741 51.799C291.643 51.7941 291.546 51.7844 291.448 51.7746C291.399 51.7697 291.35 51.7648 291.301 51.7551C291.301 51.7551 291.287 51.7551 291.282 51.7551C291.282 51.7551 291.277 51.7551 291.272 51.7551C291.199 51.7453 291.126 51.7307 291.053 51.716C291.038 51.716 291.028 51.716 291.013 51.7063C290.965 51.6965 290.921 51.6867 290.872 51.677C290.833 51.6672 290.794 51.6574 290.75 51.6477C290.711 51.6379 290.672 51.6282 290.633 51.6135C290.633 51.6135 290.608 51.6086 290.594 51.6037C290.574 51.5989 290.55 51.5891 290.53 51.5842C290.515 51.5842 290.501 51.5745 290.491 51.5695C290.481 51.5695 290.472 51.5647 290.457 51.5598C290.457 51.5598 290.447 51.5598 290.437 51.5549C290.437 51.5549 290.432 51.5549 290.428 51.5549C290.345 51.5305 290.267 51.5012 290.183 51.4671C290.14 51.4524 290.096 51.4329 290.052 51.4134C289.993 51.3889 289.935 51.3645 289.881 51.3401C289.866 51.3303 289.847 51.3255 289.832 51.3157C289.773 51.2913 289.72 51.262 289.661 51.2327C289.603 51.2034 289.549 51.1741 289.49 51.1399C289.476 51.1302 289.466 51.1253 289.451 51.1155C289.393 51.0814 289.339 51.0521 289.285 51.0179C289.246 50.9935 289.202 50.9691 289.163 50.9398C289.124 50.9154 289.085 50.8861 289.041 50.8617C289.002 50.8324 288.963 50.808 288.924 50.7787C288.846 50.7201 288.768 50.6615 288.694 50.6029C288.655 50.5737 288.621 50.5443 288.582 50.5102C288.543 50.4809 288.509 50.4467 288.47 50.4125C288.436 50.3784 288.397 50.3491 288.362 50.3149C288.328 50.2807 288.289 50.2465 288.255 50.2123C288.221 50.1782 288.187 50.144 288.153 50.1099C288.123 50.0806 288.099 50.0512 288.07 50.0268C288.07 50.022 288.06 50.0171 288.055 50.0122C288.055 50.0122 288.055 50.0122 288.05 50.0073C288.04 49.9975 288.031 49.9878 288.021 49.9731C288.021 49.9731 288.021 49.9731 288.021 49.9683C287.991 49.939 287.962 49.9048 287.933 49.8755C287.933 49.8755 287.928 49.8706 287.923 49.8657C287.899 49.8364 287.869 49.8072 287.845 49.773C287.835 49.7632 287.83 49.7535 287.821 49.7437C287.801 49.7193 287.777 49.6949 287.757 49.6656C287.742 49.6509 287.728 49.6314 287.718 49.6119C287.674 49.5533 287.625 49.4947 287.581 49.4361C287.552 49.3971 287.523 49.3531 287.493 49.3141C287.464 49.275 287.435 49.2311 287.406 49.1871C287.376 49.1432 287.352 49.1041 287.323 49.0602C287.293 49.0163 287.269 48.9723 287.24 48.9333C287.215 48.8893 287.186 48.8454 287.162 48.8014C287.137 48.7575 287.113 48.7136 287.088 48.6696C287.064 48.6257 287.039 48.5769 287.015 48.5329C286.991 48.489 286.966 48.4402 286.947 48.3963C286.922 48.3523 286.903 48.3035 286.878 48.2547C286.859 48.2059 286.834 48.1619 286.815 48.1131C286.786 48.0496 286.761 47.9862 286.732 47.9178C286.727 47.9032 286.717 47.8885 286.712 47.869C286.688 47.8056 286.664 47.7372 286.639 47.6737C286.605 47.5761 286.571 47.4736 286.537 47.371C286.488 47.2197 286.444 47.0635 286.405 46.9072C286.366 46.751 286.332 46.5899 286.302 46.4288C286.283 46.3214 286.268 46.214 286.253 46.1017C286.244 46.048 286.239 45.9943 286.234 45.9406V45.9309C286.224 45.8576 286.219 45.7844 286.214 45.7111C286.214 45.6965 286.214 45.677 286.214 45.6623C286.21 45.5891 286.205 45.5158 286.2 45.4378C286.2 45.3792 286.2 45.3255 286.195 45.2669C286.195 45.2083 286.195 45.1497 286.195 45.0911C286.195 45.0325 286.195 44.974 286.195 44.9154C286.195 44.8422 286.195 44.7738 286.2 44.7006C286.2 44.6811 286.2 44.6615 286.2 44.6371C286.2 44.5883 286.2 44.5346 286.205 44.4858C286.205 44.476 286.205 44.4663 286.205 44.4613C286.205 44.4467 286.205 44.4321 286.205 44.4174C286.205 44.3686 286.21 44.3198 286.214 44.271C286.214 44.2612 286.214 44.2514 286.214 44.2368C286.214 44.227 286.214 44.2123 286.214 44.2026C286.214 44.1538 286.224 44.1099 286.224 44.061C286.224 44.0464 286.224 44.0317 286.224 44.0122C286.224 44.0073 286.224 43.9975 286.224 43.9927C286.224 43.9927 286.224 43.9927 286.224 43.9878C286.229 43.939 286.234 43.8853 286.239 43.8364C286.239 43.8218 286.239 43.8072 286.239 43.7925C286.239 43.7925 286.239 43.7827 286.239 43.7779C286.249 43.7095 286.253 43.6411 286.263 43.5679C286.273 43.4996 286.283 43.4313 286.293 43.358C286.293 43.358 286.293 43.3531 286.293 43.3482C286.293 43.3287 286.297 43.3092 286.302 43.2945C286.302 43.2897 286.302 43.2848 286.302 43.2799C286.307 43.236 286.317 43.1969 286.322 43.153C286.322 43.1432 286.322 43.1383 286.322 43.1334C286.322 43.1188 286.327 43.1041 286.332 43.0895C286.341 43.0407 286.351 42.9919 286.356 42.943C286.356 42.9333 286.356 42.9235 286.361 42.9138C286.361 42.904 286.366 42.8893 286.371 42.8796C286.38 42.8356 286.39 42.7868 286.4 42.7429C286.4 42.7282 286.405 42.7136 286.41 42.7038C286.41 42.694 286.41 42.6843 286.415 42.6745C286.424 42.6306 286.434 42.5866 286.444 42.5427C286.444 42.5281 286.454 42.5085 286.454 42.4939C286.454 42.489 286.454 42.4792 286.454 42.4744C286.468 42.4207 286.478 42.367 286.493 42.3133C286.493 42.3035 286.498 42.2937 286.502 42.2839C286.502 42.2839 286.502 42.2839 286.502 42.2791C286.517 42.2107 286.537 42.1473 286.556 42.0789C286.556 42.0789 286.556 42.0789 286.556 42.0741C286.556 42.0643 286.561 42.0496 286.566 42.0399C286.581 41.9862 286.595 41.9373 286.61 41.8836C286.61 41.8788 286.61 41.8739 286.615 41.8641C286.615 41.8641 286.615 41.8543 286.615 41.8495C286.62 41.8348 286.624 41.8153 286.629 41.8006C286.639 41.7714 286.649 41.7421 286.659 41.7128C286.668 41.6786 286.678 41.6444 286.693 41.6103C286.703 41.5761 286.717 41.5419 286.727 41.5077C286.742 41.4687 286.751 41.4296 286.766 41.3905C286.771 41.3759 286.776 41.3564 286.786 41.3418C286.795 41.3124 286.805 41.2831 286.815 41.2587C286.815 41.249 286.82 41.2441 286.825 41.2344C286.839 41.2002 286.849 41.166 286.864 41.127C286.873 41.1074 286.878 41.083 286.888 41.0635C286.888 41.0635 286.888 41.0537 286.893 41.0488C286.908 41.0098 286.922 40.9707 286.937 40.9365C286.947 40.9121 286.956 40.8926 286.961 40.8682C286.971 40.8438 286.981 40.8242 286.991 40.7998C287.005 40.7657 287.02 40.7266 287.035 40.6924C287.035 40.6876 287.039 40.6778 287.044 40.6729C287.054 40.6485 287.064 40.629 287.074 40.6046C287.088 40.5753 287.098 40.546 287.113 40.5167C287.113 40.5069 287.122 40.4972 287.127 40.4825C287.127 40.4825 287.127 40.4776 287.132 40.4727C287.142 40.4581 287.147 40.4386 287.157 40.4239C287.171 40.3946 287.181 40.3653 287.196 40.3409C287.201 40.3263 287.21 40.3116 287.215 40.297C287.22 40.2823 287.23 40.2726 287.235 40.2579C287.249 40.2238 287.269 40.1945 287.284 40.1603C287.293 40.1456 287.298 40.1261 287.308 40.1115C287.313 40.1017 287.318 40.0919 287.323 40.0822C287.337 40.0529 287.352 40.0285 287.367 39.9992C287.367 39.9992 287.367 39.9943 287.371 39.9894C287.381 39.9699 287.391 39.9504 287.401 39.9308C287.401 39.926 287.406 39.9162 287.41 39.9113C287.42 39.8918 287.435 39.8723 287.445 39.8478C287.445 39.8381 287.454 39.8332 287.459 39.8234C287.474 39.799 287.489 39.7697 287.503 39.7453C287.518 39.7209 287.533 39.6965 287.547 39.6672C287.562 39.6379 287.581 39.6086 287.596 39.5793C287.596 39.5793 287.601 39.5696 287.606 39.5647C287.62 39.5403 287.635 39.5159 287.65 39.4866C287.664 39.4622 287.674 39.4426 287.689 39.4182C287.694 39.4085 287.703 39.3987 287.708 39.3889C287.723 39.3694 287.733 39.345 287.747 39.3255C287.762 39.3011 287.777 39.2815 287.786 39.262C287.796 39.2474 287.806 39.2327 287.811 39.2181C287.821 39.1985 287.835 39.179 287.845 39.1644C287.855 39.1448 287.869 39.1302 287.879 39.1107C287.894 39.0911 287.908 39.0667 287.918 39.0472C287.928 39.0325 287.938 39.0179 287.948 39.0033C287.957 38.9886 287.967 38.974 287.977 38.9593C287.996 38.9349 288.011 38.9056 288.031 38.8812C288.035 38.8714 288.045 38.8617 288.05 38.8519C288.055 38.8421 288.065 38.8324 288.07 38.8226C288.079 38.8129 288.084 38.7982 288.094 38.7884C288.114 38.764 288.128 38.7396 288.148 38.7152C288.182 38.6664 288.221 38.6176 288.26 38.5639C288.26 38.5639 288.265 38.5541 288.27 38.5541C288.294 38.5199 288.319 38.4906 288.338 38.4614C288.348 38.4467 288.358 38.4369 288.367 38.4223C288.377 38.4125 288.382 38.4028 288.392 38.393C288.411 38.3686 288.436 38.3393 288.455 38.3149C288.465 38.3051 288.475 38.2905 288.485 38.2807C288.494 38.2661 288.509 38.2514 288.519 38.2368C288.533 38.2172 288.548 38.2026 288.563 38.1831C288.577 38.1684 288.587 38.1538 288.602 38.1343C288.616 38.1196 288.631 38.1001 288.646 38.0854C288.655 38.0708 288.67 38.0561 288.685 38.0415C288.694 38.0269 288.709 38.0122 288.719 38.0024C288.738 37.9829 288.758 37.9585 288.777 37.939C288.787 37.9292 288.797 37.9194 288.802 37.9097C288.812 37.8999 288.821 37.8902 288.831 37.8755C288.856 37.8462 288.885 37.8169 288.909 37.7925C288.909 37.7876 288.919 37.7828 288.924 37.7779C288.963 37.7339 289.007 37.6949 289.046 37.6509C289.09 37.6021 289.139 37.5582 289.183 37.5142C289.212 37.4849 289.241 37.4557 289.275 37.4264C289.275 37.4264 289.28 37.4264 289.285 37.4215C289.3 37.4068 289.31 37.3971 289.324 37.3824C289.349 37.3629 289.368 37.3385 289.393 37.319C289.402 37.3141 289.407 37.3043 289.412 37.2994C289.432 37.2848 289.446 37.2653 289.466 37.2506C289.485 37.236 289.5 37.2213 289.52 37.2067C289.529 37.1969 289.534 37.192 289.544 37.1871C289.568 37.1676 289.593 37.1481 289.612 37.1237C289.627 37.1139 289.637 37.1042 289.651 37.0944C289.656 37.0895 289.661 37.0846 289.671 37.0797C289.7 37.0553 289.734 37.026 289.764 37.0016C289.812 36.9626 289.866 36.9186 289.915 36.8796C289.964 36.8405 290.017 36.8015 290.071 36.7624C290.11 36.7331 290.149 36.7038 290.188 36.6794C290.203 36.6697 290.218 36.6599 290.227 36.6501C290.257 36.6306 290.286 36.6111 290.315 36.5915C290.32 36.5915 290.325 36.5867 290.33 36.5818C290.349 36.5671 290.369 36.5574 290.389 36.5427C290.408 36.5281 290.432 36.5134 290.452 36.4988C290.462 36.4988 290.467 36.489 290.476 36.4841C290.501 36.4695 290.525 36.45 290.55 36.4353C290.564 36.4255 290.584 36.4158 290.598 36.4011C290.598 36.4011 290.598 36.4011 290.603 36.4011C290.637 36.3816 290.672 36.3572 290.706 36.3377C290.76 36.3035 290.813 36.2693 290.872 36.24C290.926 36.2059 290.984 36.1766 291.038 36.1473C291.053 36.1424 291.062 36.1326 291.077 36.1277C291.101 36.118 291.121 36.1033 291.145 36.0936C291.16 36.0887 291.17 36.0789 291.184 36.074C291.228 36.0496 291.267 36.0301 291.311 36.0106C291.316 36.0106 291.321 36.0057 291.326 36.0008C291.345 35.9911 291.365 35.9813 291.38 35.9715C291.409 35.9569 291.433 35.9471 291.463 35.9325C291.507 35.9129 291.546 35.8934 291.59 35.8739C291.604 35.869 291.619 35.8592 291.633 35.8544C291.653 35.8446 291.668 35.8397 291.687 35.8299C291.697 35.8299 291.707 35.8202 291.716 35.8153C291.716 35.8153 291.746 35.8055 291.756 35.7958C291.799 35.7762 291.843 35.7567 291.892 35.7372C291.951 35.7128 292.009 35.6884 292.073 35.6688C292.131 35.6444 292.195 35.6249 292.253 35.6054C292.278 35.5956 292.302 35.5907 292.332 35.581C292.444 35.5419 292.556 35.5077 292.668 35.4736C292.776 35.4443 292.888 35.415 292.996 35.3857C293.122 35.3564 293.244 35.3271 293.376 35.3027C294.026 35.0439 294.494 35 294.968 35H292.161C287.376 35 283.5 39.4622 283.5 44.9593C283.5 50.4565 287.376 54.9186 292.161 54.9186H292.166Z" fill="#00A997"/>
<path d="M294.972 54.9186C299.757 54.9186 303.633 50.4613 303.633 44.9593C303.633 39.4573 299.757 35 294.972 35C294.494 35 294.025 35.0439 293.566 35.1318C293.44 35.1562 293.313 35.1806 293.186 35.2148C293.073 35.2392 292.966 35.2685 292.859 35.3027C292.746 35.3369 292.634 35.371 292.522 35.4101C292.497 35.4199 292.473 35.4247 292.444 35.4345C292.385 35.454 292.322 35.4784 292.263 35.498C292.204 35.5224 292.146 35.5419 292.082 35.5663C292.024 35.5907 291.965 35.6151 291.907 35.6395C291.907 35.6395 291.887 35.6493 291.877 35.6542C291.77 35.703 291.662 35.7518 291.56 35.8007C291.457 35.8495 291.36 35.9032 291.257 35.9569C291.243 35.9618 291.233 35.9715 291.218 35.9764C291.165 36.0057 291.106 36.0399 291.052 36.0692C290.998 36.1033 290.94 36.1326 290.886 36.1668C290.833 36.201 290.779 36.2351 290.725 36.2693C290.696 36.2889 290.667 36.3084 290.637 36.3279C290.613 36.3426 290.588 36.3621 290.564 36.3767C290.51 36.4109 290.457 36.45 290.408 36.489C290.354 36.5281 290.305 36.5671 290.252 36.6013C290.198 36.6404 290.149 36.6794 290.095 36.7185C290.047 36.7575 289.993 36.7966 289.944 36.8405C289.895 36.8845 289.846 36.9235 289.793 36.9675C289.744 37.0114 289.695 37.0504 289.646 37.0944C289.622 37.1188 289.597 37.1432 289.568 37.1627C289.544 37.1823 289.524 37.2067 289.5 37.2262C289.451 37.2701 289.407 37.3141 289.358 37.3629C289.309 37.4068 289.265 37.4557 289.221 37.4996C289.178 37.5484 289.129 37.5923 289.085 37.6412C289.041 37.69 288.997 37.7388 288.953 37.7876C288.909 37.8365 288.865 37.8853 288.821 37.9341C288.777 37.9829 288.733 38.0366 288.694 38.0854C288.68 38.105 288.665 38.1245 288.645 38.144C288.621 38.1782 288.592 38.2075 288.567 38.2417C288.528 38.2954 288.484 38.3442 288.445 38.3979C288.406 38.4516 288.367 38.5053 288.328 38.559C288.309 38.5834 288.294 38.6078 288.274 38.6322C288.255 38.6615 288.23 38.6908 288.211 38.725C288.186 38.7592 288.162 38.7933 288.143 38.8275C288.128 38.847 288.113 38.8714 288.099 38.891C288.06 38.9447 288.025 39.0033 287.986 39.0618C287.952 39.1204 287.913 39.1741 287.879 39.2327C287.845 39.2913 287.811 39.3499 287.776 39.4085C287.742 39.467 287.708 39.5256 287.674 39.5842C287.654 39.6184 287.64 39.6526 287.62 39.6867C287.606 39.7111 287.591 39.7404 287.576 39.7648C287.566 39.7844 287.557 39.8039 287.547 39.8234C287.527 39.8625 287.503 39.9064 287.483 39.9504C287.454 40.0138 287.42 40.0724 287.391 40.1359C287.361 40.1945 287.337 40.253 287.308 40.3165C287.308 40.3165 287.308 40.3214 287.308 40.3263C287.278 40.3897 287.249 40.4532 287.225 40.5167C287.195 40.5801 287.171 40.6436 287.142 40.7071C287.117 40.7705 287.088 40.834 287.064 40.9024C287.039 40.9658 287.015 41.0342 286.99 41.0976C286.922 41.2929 286.854 41.4882 286.795 41.6932C286.795 41.6932 286.795 41.703 286.795 41.7079C286.776 41.7762 286.756 41.8446 286.737 41.913C286.717 41.9813 286.697 42.0496 286.683 42.1228C286.668 42.1815 286.654 42.24 286.639 42.3035C286.639 42.3133 286.634 42.323 286.629 42.3328C286.614 42.4011 286.595 42.4744 286.58 42.5427C286.566 42.6159 286.551 42.6843 286.536 42.7575C286.522 42.8308 286.507 42.8991 286.497 42.9723C286.488 43.0212 286.483 43.07 286.473 43.1188C286.473 43.1432 286.463 43.1676 286.463 43.1871C286.453 43.2604 286.444 43.3336 286.434 43.402C286.424 43.4752 286.414 43.5484 286.405 43.6216C286.395 43.69 286.39 43.7583 286.385 43.8267C286.385 43.8316 286.385 43.8414 286.385 43.8462C286.38 43.9194 286.37 43.9927 286.365 44.0659C286.361 44.1391 286.356 44.2173 286.351 44.2905C286.341 44.4418 286.336 44.5932 286.336 44.7445C286.336 44.8031 286.336 44.8666 286.336 44.9251C286.336 44.9837 286.336 45.0423 286.336 45.1009C286.336 45.1595 286.336 45.2132 286.341 45.2718C286.351 45.4378 286.361 45.5989 286.38 45.7648V45.7746C286.385 45.8283 286.395 45.882 286.4 45.9357C286.414 46.0431 286.429 46.1554 286.448 46.2628C286.527 46.6924 286.634 47.1123 286.78 47.5077C286.834 47.6542 286.893 47.8006 286.956 47.9471C287 48.0447 287.044 48.1375 287.088 48.2302C287.112 48.2742 287.132 48.323 287.156 48.367C287.181 48.4109 287.205 48.4597 287.23 48.5037C287.254 48.5476 287.278 48.5916 287.303 48.6355C287.327 48.6794 287.352 48.7234 287.381 48.7673C287.405 48.8112 287.435 48.8551 287.464 48.8991C287.493 48.943 287.518 48.9821 287.547 49.026C287.576 49.07 287.606 49.109 287.635 49.153C287.693 49.236 287.752 49.3141 287.815 49.3971C287.928 49.5435 288.05 49.6851 288.172 49.8218C288.182 49.8316 288.191 49.8414 288.201 49.856C288.206 49.8609 288.216 49.8706 288.221 49.8755C288.245 49.9048 288.274 49.9341 288.304 49.9585C288.338 49.9927 288.372 50.0268 288.406 50.061C288.475 50.1294 288.548 50.1977 288.621 50.2612C288.655 50.2954 288.694 50.3247 288.733 50.3588C288.772 50.3881 288.806 50.4223 288.846 50.4516C288.924 50.5102 288.997 50.5687 289.075 50.6274C289.153 50.6859 289.231 50.7396 289.314 50.7885C289.353 50.8129 289.397 50.8422 289.436 50.8666C289.558 50.9398 289.685 51.013 289.812 51.0765C289.939 51.1399 290.071 51.2034 290.203 51.2571C290.247 51.2766 290.291 51.2913 290.335 51.3108C290.335 51.3108 290.354 51.3157 290.364 51.3206C290.437 51.3499 290.515 51.3743 290.588 51.3987C290.593 51.3987 290.598 51.3987 290.608 51.4036C290.608 51.4036 290.632 51.4084 290.642 51.4134C290.676 51.4231 290.71 51.4329 290.745 51.4475C290.759 51.4475 290.769 51.4524 290.784 51.4573C290.862 51.4817 290.945 51.5012 291.023 51.5208C291.072 51.5305 291.116 51.5403 291.165 51.55C291.165 51.55 291.189 51.55 291.204 51.5598C291.277 51.5745 291.355 51.5891 291.428 51.5989C291.433 51.5989 291.443 51.5989 291.448 51.5989C291.496 51.6037 291.545 51.6135 291.594 51.6184C291.692 51.6282 291.789 51.6379 291.887 51.6428C291.936 51.6428 291.985 51.6428 292.033 51.6477C292.082 51.6477 292.131 51.6477 292.18 51.6477C292.663 51.6477 293.132 51.5793 293.586 51.4524C291.033 50.7298 289.134 48.0789 289.134 44.9154C289.134 41.7518 291.028 39.1009 293.586 38.3784C294.035 38.2514 294.504 38.1831 294.992 38.1831C295.69 38.1831 296.354 38.3247 296.974 38.5785C297.018 38.598 297.062 38.6176 297.106 38.6371C297.457 38.7933 297.789 38.9886 298.102 39.2132C298.258 39.3255 298.409 39.4475 298.556 39.5793C298.595 39.6135 298.629 39.6428 298.663 39.677C299.239 40.2091 299.723 40.8682 300.089 41.6103C300.133 41.703 300.177 41.7958 300.221 41.8934C300.304 42.0838 300.382 42.2791 300.45 42.4842C300.484 42.5866 300.514 42.6843 300.548 42.7917C300.577 42.8942 300.606 42.9967 300.631 43.1041C300.655 43.2115 300.68 43.3141 300.699 43.4215C300.733 43.5826 300.758 43.7437 300.777 43.9097C300.792 44.0171 300.802 44.1294 300.811 44.2417C300.811 44.2954 300.821 44.3539 300.826 44.4076C300.826 44.4663 300.831 44.52 300.836 44.5785C300.841 44.6371 300.836 44.6908 300.841 44.7494C300.841 44.808 300.841 44.8666 300.841 44.9251C300.841 44.9837 300.841 45.0423 300.841 45.1009C300.841 45.1741 300.841 45.2425 300.836 45.3157C300.836 45.345 300.836 45.3743 300.836 45.4036C300.836 45.4475 300.836 45.4866 300.831 45.5305C300.831 45.5598 300.831 45.5891 300.826 45.6184C300.826 45.6623 300.821 45.7063 300.816 45.7453C300.816 45.7746 300.816 45.8039 300.811 45.8283C300.811 45.8722 300.806 45.9162 300.802 45.9601C300.802 45.9894 300.802 46.0138 300.792 46.0431C300.792 46.087 300.782 46.131 300.777 46.1701C300.777 46.1994 300.772 46.2286 300.767 46.2579C300.763 46.3018 300.758 46.3458 300.753 46.3849C300.753 46.4093 300.748 46.4337 300.743 46.463C300.738 46.5118 300.728 46.5558 300.723 46.5997C300.723 46.6241 300.719 46.6485 300.714 46.6729C300.704 46.7413 300.694 46.8096 300.68 46.878C300.68 46.8877 300.68 46.8926 300.68 46.9024C300.67 46.9609 300.66 47.0195 300.645 47.0781C300.645 47.1025 300.636 47.127 300.631 47.1562C300.621 47.2002 300.611 47.2441 300.606 47.2881C300.601 47.3124 300.597 47.3368 300.592 47.3613C300.582 47.4052 300.572 47.4442 300.562 47.4882C300.558 47.5175 300.548 47.5468 300.543 47.5761C300.533 47.6103 300.523 47.6493 300.518 47.6835C300.509 47.7128 300.504 47.7469 300.494 47.7762C300.484 47.8104 300.474 47.8495 300.465 47.8836C300.455 47.913 300.45 47.9422 300.44 47.9715C300.431 48.0106 300.421 48.0496 300.406 48.0887C300.396 48.1131 300.391 48.1424 300.382 48.1668C300.372 48.2059 300.357 48.24 300.348 48.2791C300.338 48.3084 300.328 48.3377 300.323 48.367C300.304 48.4255 300.284 48.489 300.265 48.5476C300.255 48.5769 300.245 48.6062 300.235 48.6355C300.226 48.6696 300.211 48.7038 300.201 48.738C300.191 48.7673 300.177 48.8014 300.167 48.8308C300.157 48.8649 300.143 48.8942 300.133 48.9284C300.123 48.9577 300.108 48.987 300.099 49.0114C300.084 49.0456 300.069 49.0797 300.06 49.1139C300.05 49.1432 300.035 49.1725 300.025 49.2018C300.011 49.2311 300.001 49.2652 299.986 49.2945C299.972 49.3239 299.962 49.358 299.947 49.3873C299.933 49.4166 299.918 49.4508 299.908 49.48C299.894 49.5094 299.884 49.5387 299.869 49.5679C299.855 49.5972 299.84 49.6265 299.83 49.6558C299.815 49.6851 299.801 49.7144 299.786 49.7486C299.772 49.7779 299.757 49.8072 299.742 49.8364C299.728 49.8657 299.713 49.8951 299.698 49.9194C299.688 49.939 299.679 49.9536 299.674 49.9731C299.654 50.0122 299.635 50.0512 299.615 50.0903C299.601 50.1196 299.581 50.1538 299.566 50.1831C299.552 50.2075 299.542 50.2319 299.527 50.2563C299.508 50.2905 299.488 50.3247 299.474 50.3539C299.459 50.3784 299.449 50.4028 299.435 50.4223C299.415 50.4565 299.396 50.4906 299.376 50.5248C299.366 50.5443 299.352 50.5639 299.342 50.5834C299.322 50.6176 299.303 50.6469 299.283 50.6811C299.269 50.7054 299.254 50.7298 299.239 50.7543C299.22 50.7835 299.2 50.8129 299.181 50.847C299.166 50.8666 299.156 50.8861 299.142 50.9056C299.117 50.9398 299.098 50.974 299.073 51.0081C299.064 51.0228 299.054 51.0374 299.039 51.057C299.015 51.096 298.99 51.1302 298.966 51.1644C298.966 51.1644 298.966 51.1644 298.966 51.1692C298.898 51.262 298.829 51.3597 298.761 51.4475C298.737 51.4817 298.707 51.5158 298.683 51.55C298.673 51.5647 298.658 51.5793 298.649 51.594C298.619 51.6282 298.595 51.6623 298.566 51.6965C298.556 51.7111 298.546 51.7209 298.536 51.7356C298.507 51.7697 298.478 51.8039 298.448 51.8381C298.439 51.8478 298.429 51.8625 298.419 51.8722C298.39 51.9064 298.361 51.9406 298.331 51.9748C298.322 51.9894 298.307 51.9992 298.297 52.0138C298.268 52.048 298.239 52.0773 298.209 52.1115C298.199 52.1212 298.185 52.1359 298.175 52.1457C298.146 52.1798 298.112 52.214 298.077 52.2481C297.916 52.4142 297.755 52.5753 297.584 52.7315C297.584 52.7315 297.584 52.7315 297.579 52.7315C297.54 52.7656 297.506 52.7998 297.467 52.834C297.457 52.8389 297.453 52.8487 297.443 52.8535C297.409 52.8828 297.374 52.9121 297.34 52.9414C297.33 52.9512 297.316 52.9609 297.306 52.9707C297.272 53 297.233 53.0293 297.199 53.0586L297.174 53.0781C297.135 53.1074 297.096 53.1416 297.057 53.1709C297.057 53.1709 297.047 53.1757 297.047 53.1807C297.003 53.2148 296.964 53.2441 296.92 53.2783C296.74 53.4101 296.554 53.537 296.364 53.659C296.359 53.659 296.354 53.664 296.349 53.6688C296.31 53.6932 296.266 53.7177 296.227 53.7421C296.217 53.7469 296.208 53.7567 296.198 53.7616C296.159 53.786 296.115 53.8104 296.076 53.8348C296.066 53.8397 296.056 53.8446 296.051 53.8495C296.007 53.8739 295.963 53.8983 295.92 53.9227C295.92 53.9227 295.91 53.9227 295.905 53.9276C295.856 53.952 295.812 53.9764 295.763 54.0008H295.754C295.705 54.0301 295.656 54.0545 295.607 54.0789C295.407 54.1765 295.202 54.2644 294.992 54.3474C294.992 54.3474 294.987 54.3474 294.982 54.3474C294.548 54.5134 294.094 54.6453 293.63 54.7331C293.171 54.821 292.702 54.8649 292.224 54.8649H295.031L294.972 54.9186Z" fill="#00390D"/>
<mask id="mask1_2042_80" style="mask-type:luminance" maskUnits="userSpaceOnUse" x="286" y="35" width="18" height="20">
<path d="M293.566 35.1318C293.44 35.1562 293.313 35.1806 293.186 35.2148C293.073 35.2392 292.966 35.2685 292.859 35.3027C292.746 35.3369 292.634 35.371 292.522 35.4052C292.497 35.415 292.473 35.4199 292.444 35.4296C292.385 35.4491 292.322 35.4736 292.263 35.4931C292.204 35.5175 292.146 35.537 292.082 35.5614C292.024 35.5858 291.965 35.6103 291.907 35.6347C291.907 35.6347 291.887 35.6444 291.877 35.6493C291.77 35.6981 291.662 35.7469 291.56 35.7958C291.457 35.8446 291.36 35.8983 291.257 35.952C291.243 35.9569 291.233 35.9666 291.218 35.9715C291.16 36.0008 291.106 36.035 291.052 36.0643C290.998 36.0985 290.94 36.1277 290.886 36.1619C290.833 36.1961 290.779 36.2303 290.725 36.2644C290.696 36.284 290.667 36.3035 290.637 36.323C290.613 36.3377 290.588 36.3572 290.564 36.3718C290.51 36.406 290.457 36.4451 290.408 36.4841C290.354 36.5232 290.305 36.5574 290.252 36.5964C290.198 36.6355 290.149 36.6745 290.095 36.7136C290.047 36.7526 289.993 36.7917 289.944 36.8356C289.895 36.8747 289.846 36.9186 289.798 36.9626C289.749 37.0065 289.7 37.0456 289.651 37.0895C289.627 37.1139 289.602 37.1383 289.573 37.1579C289.549 37.1774 289.529 37.2018 289.505 37.2213C289.456 37.2653 289.412 37.3092 289.363 37.358C289.314 37.4019 289.27 37.4508 289.226 37.4947C289.182 37.5435 289.134 37.5875 289.09 37.6363C289.046 37.6851 289.002 37.7339 288.958 37.7828C288.914 37.8316 288.87 37.8804 288.826 37.9292C288.782 37.978 288.738 38.0317 288.699 38.0805C288.684 38.1001 288.67 38.1196 288.65 38.1391C288.626 38.1733 288.597 38.2026 288.572 38.2368C288.533 38.2905 288.489 38.3393 288.45 38.393C288.411 38.4467 288.372 38.5004 288.333 38.5541C288.333 38.5541 288.299 38.6029 288.279 38.6273C288.26 38.6566 288.235 38.6859 288.216 38.7201C288.191 38.7543 288.167 38.7884 288.147 38.8226C288.133 38.8421 288.118 38.8666 288.103 38.8861C288.064 38.9398 288.03 38.9984 287.991 39.057C287.957 39.1155 287.918 39.1692 287.884 39.2278C287.85 39.2864 287.815 39.345 287.781 39.4036C287.747 39.4622 287.713 39.5207 287.679 39.5793C287.659 39.6135 287.645 39.6477 287.625 39.6819C287.61 39.7063 287.596 39.7356 287.581 39.76C287.571 39.7795 287.562 39.799 287.552 39.8186C287.532 39.8576 287.508 39.9015 287.488 39.9455C287.459 40.0089 287.425 40.0675 287.396 40.131C287.366 40.1896 287.342 40.2482 287.313 40.3068C287.313 40.3068 287.313 40.3116 287.308 40.3165C287.278 40.38 287.249 40.4434 287.225 40.5069C287.195 40.5704 287.171 40.6338 287.142 40.6973C287.117 40.7608 287.088 40.8242 287.064 40.8926C287.039 40.9561 287.015 41.0244 286.99 41.0879C286.917 41.2831 286.854 41.4784 286.795 41.6835C286.795 41.6835 286.795 41.6932 286.795 41.6981C286.776 41.7665 286.756 41.8348 286.737 41.9032C286.717 41.9715 286.697 42.0399 286.683 42.1131C286.668 42.1717 286.654 42.2302 286.639 42.2937C286.639 42.3035 286.634 42.3133 286.629 42.323C286.614 42.3914 286.595 42.4646 286.58 42.5329C286.566 42.6062 286.551 42.6745 286.536 42.7477C286.522 42.821 286.507 42.8893 286.497 42.9625C286.488 43.0114 286.483 43.0602 286.473 43.109C286.473 43.1334 286.463 43.1578 286.463 43.1774C286.453 43.2506 286.444 43.3239 286.434 43.3922C286.424 43.4654 286.414 43.5387 286.405 43.6119C286.395 43.6802 286.39 43.7486 286.385 43.812C286.385 43.8169 286.385 43.8267 286.385 43.8316C286.38 43.9048 286.37 43.978 286.365 44.0512C286.361 44.1245 286.356 44.2026 286.351 44.2758C286.341 44.4272 286.336 44.5785 286.336 44.7298C286.336 44.7885 286.336 44.8519 286.336 44.9105C286.336 44.9691 286.336 45.0277 286.336 45.0862C286.336 45.1449 286.336 45.1986 286.341 45.2571C286.346 45.4231 286.361 45.5842 286.38 45.7502V45.76C286.385 45.8137 286.395 45.8674 286.4 45.9211C286.414 46.0285 286.429 46.1407 286.448 46.2481C286.527 46.6778 286.634 47.0976 286.78 47.4931C286.834 47.6444 286.893 47.7909 286.956 47.9325C287 48.0301 287.044 48.1228 287.088 48.2156C287.112 48.2596 287.132 48.3084 287.156 48.3523C287.181 48.3963 287.205 48.4451 287.23 48.489C287.254 48.5329 287.278 48.5769 287.303 48.6208C287.327 48.6648 287.352 48.7087 287.381 48.7527C287.405 48.7966 287.435 48.8405 287.459 48.8796C287.488 48.9235 287.513 48.9625 287.542 49.0065C287.571 49.0504 287.601 49.0895 287.63 49.1334C287.689 49.2165 287.747 49.2945 287.811 49.3776C287.923 49.524 288.045 49.6656 288.167 49.7974C288.177 49.8072 288.186 49.8169 288.196 49.8316C288.201 49.8414 288.211 49.8462 288.216 49.8511C288.24 49.8804 288.269 49.9097 288.299 49.9341C288.333 49.9683 288.367 50.0025 288.401 50.0366C288.47 50.1049 288.543 50.1733 288.616 50.2368C288.655 50.271 288.689 50.3002 288.728 50.3344C288.767 50.3637 288.802 50.3979 288.841 50.4272C288.919 50.4858 288.992 50.5443 289.07 50.6029C289.148 50.6615 289.226 50.7152 289.309 50.764C289.348 50.7885 289.392 50.8177 289.431 50.8422C289.553 50.9154 289.68 50.9886 289.807 51.0521C289.934 51.1155 290.066 51.179 290.198 51.2327C290.242 51.2523 290.286 51.2669 290.33 51.2864C290.33 51.2864 290.349 51.2913 290.359 51.2962C290.432 51.3255 290.51 51.3499 290.584 51.3743C290.588 51.3743 290.593 51.3743 290.603 51.3792C290.603 51.3792 290.623 51.384 290.637 51.3889C290.671 51.3987 290.706 51.4134 290.74 51.4231C290.754 51.4231 290.764 51.428 290.779 51.4329C290.857 51.4573 290.94 51.4768 291.018 51.4963C291.067 51.5061 291.111 51.5158 291.16 51.5256C291.174 51.5256 291.184 51.5305 291.199 51.5354C291.272 51.55 291.35 51.5647 291.423 51.5745C291.428 51.5745 291.438 51.5745 291.443 51.5745C291.492 51.5793 291.54 51.5891 291.589 51.594C291.687 51.6037 291.784 51.6135 291.882 51.6184C291.931 51.6184 291.98 51.6232 292.029 51.6232C292.077 51.6232 292.126 51.6232 292.175 51.6232C292.658 51.6232 293.127 51.5549 293.581 51.428C291.023 50.7054 289.129 48.0545 289.129 44.8909C289.129 41.7274 291.023 39.0765 293.581 38.3539C294.03 38.227 294.499 38.1587 294.982 38.1587C295.68 38.1587 296.349 38.3002 296.964 38.5541C297.008 38.5736 297.052 38.5932 297.096 38.6127C297.448 38.7689 297.78 38.9642 298.092 39.1888C298.248 39.3011 298.4 39.4231 298.546 39.5549C298.585 39.5891 298.619 39.6184 298.654 39.6526C299.23 40.1847 299.713 40.8438 300.079 41.5858C300.123 41.6786 300.167 41.7714 300.211 41.869C300.294 42.0594 300.372 42.2547 300.44 42.4597C300.474 42.5622 300.504 42.6599 300.538 42.7624C300.567 42.8649 300.597 42.9675 300.621 43.0749C300.645 43.1774 300.67 43.2848 300.689 43.3922C300.723 43.5533 300.748 43.7144 300.767 43.8804C300.782 43.9878 300.792 44.1001 300.802 44.2123C300.802 44.266 300.811 44.3247 300.816 44.3784C300.816 44.4369 300.821 44.4906 300.826 44.5492C300.826 44.6078 300.826 44.6615 300.831 44.7201C300.831 44.7787 300.831 44.8372 300.831 44.8959C300.831 44.9544 300.831 45.013 300.831 45.0716C300.831 45.1449 300.831 45.2132 300.826 45.2864C300.826 45.3157 300.826 45.345 300.826 45.3743C300.826 45.4182 300.826 45.4573 300.821 45.5012C300.821 45.5305 300.821 45.5598 300.816 45.5891C300.816 45.633 300.811 45.677 300.806 45.716C300.806 45.7453 300.806 45.7746 300.802 45.799C300.802 45.843 300.797 45.8869 300.792 45.9309C300.792 45.9601 300.787 45.9846 300.782 46.0138C300.782 46.0578 300.772 46.1017 300.767 46.1407C300.767 46.1701 300.763 46.1994 300.758 46.2286C300.753 46.2726 300.748 46.3165 300.743 46.3556C300.743 46.38 300.738 46.4044 300.733 46.4337C300.728 46.4825 300.719 46.5264 300.714 46.5704C300.714 46.5948 300.709 46.6192 300.704 46.6436C300.694 46.7119 300.684 46.7803 300.67 46.8487C300.67 46.8584 300.67 46.8633 300.67 46.873C300.66 46.9317 300.65 46.9902 300.636 47.0488C300.636 47.0732 300.626 47.0976 300.621 47.1269C300.611 47.1709 300.601 47.2148 300.597 47.2587C300.592 47.2831 300.587 47.3076 300.582 47.332C300.572 47.3759 300.562 47.415 300.553 47.4589C300.548 47.4882 300.538 47.5175 300.533 47.5468C300.523 47.581 300.514 47.62 300.509 47.6542C300.499 47.6835 300.494 47.7177 300.484 47.7469C300.474 47.7811 300.465 47.8202 300.455 47.8543C300.445 47.8836 300.44 47.913 300.431 47.9422C300.421 47.9813 300.406 48.0204 300.396 48.0594C300.387 48.0838 300.382 48.1131 300.372 48.1375C300.362 48.1765 300.348 48.2107 300.338 48.2498C300.328 48.2791 300.318 48.3084 300.313 48.3328C300.294 48.3914 300.274 48.4548 300.255 48.5134C300.245 48.5427 300.235 48.572 300.226 48.6013C300.216 48.6355 300.201 48.6696 300.191 48.7038C300.182 48.7331 300.167 48.7673 300.157 48.7966C300.147 48.8308 300.133 48.8601 300.123 48.8942C300.113 48.9235 300.099 48.9528 300.089 48.9772C300.074 49.0114 300.06 49.0456 300.05 49.0797C300.04 49.109 300.025 49.1383 300.016 49.1676C300.001 49.1969 299.991 49.2311 299.977 49.2604C299.962 49.2897 299.952 49.3239 299.937 49.3531C299.923 49.3824 299.908 49.4166 299.898 49.4459C299.884 49.4752 299.874 49.5045 299.859 49.5337C299.845 49.5631 299.83 49.5924 299.82 49.6216C299.806 49.6509 299.791 49.6802 299.776 49.7144C299.762 49.7437 299.747 49.773 299.732 49.8023C299.718 49.8316 299.703 49.8609 299.688 49.8853C299.679 49.9048 299.669 49.9194 299.664 49.9341C299.645 49.9731 299.625 50.0122 299.605 50.0512C299.591 50.0805 299.571 50.1147 299.557 50.144C299.542 50.1684 299.532 50.1928 299.518 50.2173C299.498 50.2514 299.479 50.2856 299.464 50.3149C299.449 50.3393 299.44 50.3637 299.425 50.3832C299.405 50.4174 299.386 50.4516 299.366 50.4858C299.356 50.5053 299.342 50.5248 299.332 50.5443C299.313 50.5785 299.293 50.6078 299.274 50.642C299.259 50.6664 299.244 50.6908 299.23 50.7152C299.21 50.7445 299.191 50.7738 299.171 50.808C299.156 50.8275 299.147 50.847 299.132 50.8666C299.108 50.9007 299.088 50.9349 299.064 50.9691C299.054 50.9837 299.044 50.9983 299.029 51.0179C299.005 51.057 298.981 51.0911 298.956 51.1253C298.956 51.1253 298.956 51.1253 298.956 51.1302C298.888 51.2229 298.819 51.3206 298.751 51.4084C298.727 51.4426 298.697 51.4768 298.673 51.511C298.663 51.5256 298.649 51.5403 298.639 51.5549C298.61 51.5891 298.585 51.6232 298.556 51.6574C298.546 51.6721 298.536 51.6819 298.527 51.6965C298.497 51.7307 298.468 51.7648 298.439 51.799C298.429 51.8088 298.419 51.8234 298.409 51.8332C298.38 51.8674 298.351 51.9015 298.322 51.9357C298.312 51.9504 298.297 51.9601 298.287 51.9748C298.258 52.0089 298.229 52.0383 298.199 52.0724C298.19 52.0822 298.175 52.0968 298.165 52.1066C298.136 52.1407 298.102 52.1749 298.068 52.2091C297.907 52.3751 297.745 52.5362 297.575 52.6924C297.575 52.6924 297.575 52.6924 297.57 52.6924C297.531 52.7266 297.496 52.7608 297.457 52.795C297.448 52.8047 297.443 52.8096 297.433 52.8145C297.399 52.8438 297.365 52.873 297.33 52.9024C297.321 52.9121 297.306 52.9219 297.296 52.9317C297.262 52.9609 297.223 52.9902 297.189 53.0195C297.179 53.0244 297.174 53.0341 297.165 53.0391C297.125 53.0683 297.086 53.1025 297.047 53.1318C297.047 53.1318 297.038 53.1367 297.038 53.1416C296.994 53.1757 296.955 53.205 296.911 53.2392C296.73 53.371 296.544 53.4979 296.354 53.62C296.349 53.62 296.344 53.6249 296.339 53.6298C296.3 53.6542 296.256 53.6786 296.217 53.703C296.208 53.7079 296.198 53.7177 296.188 53.7225C296.149 53.7469 296.105 53.7714 296.066 53.7958C296.056 53.7958 296.047 53.8055 296.042 53.8104C295.998 53.8348 295.954 53.8593 295.91 53.8836C295.91 53.8836 295.9 53.8836 295.895 53.8885C295.846 53.913 295.802 53.9373 295.754 53.9617C295.754 53.9617 295.749 53.9617 295.744 53.9617C295.695 53.9862 295.646 54.0106 295.597 54.035C295.397 54.1326 295.192 54.2205 294.982 54.3035C294.982 54.3035 294.977 54.3035 294.972 54.3035C294.538 54.4695 294.084 54.6013 293.62 54.6892C293.161 54.7771 292.693 54.821 292.214 54.821H295.021C299.806 54.821 303.682 50.3637 303.682 44.8617C303.682 39.3596 299.757 35 294.972 35C294.494 35 294.025 35.0439 293.566 35.1318Z" fill="white"/>
</mask>
<g mask="url(#mask1_2042_80)">
<path d="M303.633 35H286.307V54.9186H303.633V35Z" fill="#00390D"/>
</g>
<path d="M294.972 54.9186C299.757 54.9186 303.633 50.4613 303.633 44.9593C303.633 39.4573 299.757 35 294.972 35C294.494 35 294.025 35.0439 293.566 35.1318C293.44 35.1562 293.313 35.1806 293.186 35.2148C293.073 35.2392 292.966 35.2685 292.859 35.3027C292.746 35.3369 292.634 35.371 292.522 35.4101C292.497 35.4199 292.473 35.4247 292.444 35.4345C292.385 35.454 292.322 35.4784 292.263 35.498C292.204 35.5224 292.146 35.5419 292.082 35.5663C292.024 35.5907 291.965 35.6151 291.907 35.6395C291.907 35.6395 291.887 35.6493 291.877 35.6542C291.77 35.703 291.662 35.7518 291.56 35.8007C291.457 35.8495 291.36 35.9032 291.257 35.9569C291.243 35.9618 291.233 35.9715 291.218 35.9764C291.165 36.0057 291.106 36.0399 291.052 36.0692C290.998 36.1033 290.94 36.1326 290.886 36.1668C290.833 36.201 290.779 36.2351 290.725 36.2693C290.696 36.2889 290.667 36.3084 290.637 36.3279C290.613 36.3426 290.588 36.3621 290.564 36.3767C290.51 36.4109 290.457 36.45 290.408 36.489C290.354 36.5281 290.305 36.5671 290.252 36.6013C290.198 36.6404 290.149 36.6794 290.095 36.7185C290.047 36.7575 289.993 36.7966 289.944 36.8405C289.895 36.8845 289.846 36.9235 289.793 36.9675C289.744 37.0114 289.695 37.0504 289.646 37.0944C289.622 37.1188 289.597 37.1432 289.568 37.1627C289.544 37.1823 289.524 37.2067 289.5 37.2262C289.451 37.2701 289.407 37.3141 289.358 37.3629C289.309 37.4068 289.265 37.4557 289.221 37.4996C289.178 37.5484 289.129 37.5923 289.085 37.6412C289.041 37.69 288.997 37.7388 288.953 37.7876C288.909 37.8365 288.865 37.8853 288.821 37.9341C288.777 37.9829 288.733 38.0366 288.694 38.0854C288.68 38.105 288.665 38.1245 288.645 38.144C288.621 38.1782 288.592 38.2075 288.567 38.2417C288.528 38.2954 288.484 38.3442 288.445 38.3979C288.406 38.4516 288.367 38.5053 288.328 38.559C288.309 38.5834 288.294 38.6078 288.274 38.6322C288.255 38.6615 288.23 38.6908 288.211 38.725C288.186 38.7592 288.162 38.7933 288.143 38.8275C288.128 38.847 288.113 38.8714 288.099 38.891C288.06 38.9447 288.025 39.0033 287.986 39.0618C287.952 39.1204 287.913 39.1741 287.879 39.2327C287.845 39.2913 287.811 39.3499 287.776 39.4085C287.742 39.467 287.708 39.5256 287.674 39.5842C287.654 39.6184 287.64 39.6526 287.62 39.6867C287.606 39.7111 287.591 39.7404 287.576 39.7648C287.566 39.7844 287.557 39.8039 287.547 39.8234C287.527 39.8625 287.503 39.9064 287.483 39.9504C287.454 40.0138 287.42 40.0724 287.391 40.1359C287.361 40.1945 287.337 40.253 287.308 40.3165C287.308 40.3165 287.308 40.3214 287.308 40.3263C287.278 40.3897 287.249 40.4532 287.225 40.5167C287.195 40.5801 287.171 40.6436 287.142 40.7071C287.117 40.7705 287.088 40.834 287.064 40.9024C287.039 40.9658 287.015 41.0342 286.99 41.0976C286.922 41.2929 286.854 41.4882 286.795 41.6932C286.795 41.6932 286.795 41.703 286.795 41.7079C286.776 41.7762 286.756 41.8446 286.737 41.913C286.717 41.9813 286.697 42.0496 286.683 42.1228C286.668 42.1815 286.654 42.24 286.639 42.3035C286.639 42.3133 286.634 42.323 286.629 42.3328C286.614 42.4011 286.595 42.4744 286.58 42.5427C286.566 42.6159 286.551 42.6843 286.536 42.7575C286.522 42.8308 286.507 42.8991 286.497 42.9723C286.488 43.0212 286.483 43.07 286.473 43.1188C286.473 43.1432 286.463 43.1676 286.463 43.1871C286.453 43.2604 286.444 43.3336 286.434 43.402C286.424 43.4752 286.414 43.5484 286.405 43.6216C286.395 43.69 286.39 43.7583 286.385 43.8267C286.385 43.8316 286.385 43.8414 286.385 43.8462C286.38 43.9194 286.37 43.9927 286.365 44.0659C286.361 44.1391 286.356 44.2173 286.351 44.2905C286.341 44.4418 286.336 44.5932 286.336 44.7445C286.336 44.8031 286.336 44.8666 286.336 44.9251C286.336 44.9837 286.336 45.0423 286.336 45.1009C286.336 45.1595 286.336 45.2132 286.341 45.2718C286.351 45.4378 286.361 45.5989 286.38 45.7648V45.7746C286.385 45.8283 286.395 45.882 286.4 45.9357C286.414 46.0431 286.429 46.1554 286.448 46.2628C286.527 46.6924 286.634 47.1123 286.78 47.5077C286.834 47.6542 286.893 47.8006 286.956 47.9471C287 48.0447 287.044 48.1375 287.088 48.2302C287.112 48.2742 287.132 48.323 287.156 48.367C287.181 48.4109 287.205 48.4597 287.23 48.5037C287.254 48.5476 287.278 48.5916 287.303 48.6355C287.327 48.6794 287.352 48.7234 287.381 48.7673C287.405 48.8112 287.435 48.8551 287.464 48.8991C287.493 48.943 287.518 48.9821 287.547 49.026C287.576 49.07 287.606 49.109 287.635 49.153C287.693 49.236 287.752 49.3141 287.815 49.3971C287.928 49.5435 288.05 49.6851 288.172 49.8218C288.182 49.8316 288.191 49.8414 288.201 49.856C288.206 49.8609 288.216 49.8706 288.221 49.8755C288.245 49.9048 288.274 49.9341 288.304 49.9585C288.338 49.9927 288.372 50.0268 288.406 50.061C288.475 50.1294 288.548 50.1977 288.621 50.2612C288.655 50.2954 288.694 50.3247 288.733 50.3588C288.772 50.3881 288.806 50.4223 288.846 50.4516C288.924 50.5102 288.997 50.5687 289.075 50.6274C289.153 50.6859 289.231 50.7396 289.314 50.7885C289.353 50.8129 289.397 50.8422 289.436 50.8666C289.558 50.9398 289.685 51.013 289.812 51.0765C289.939 51.1399 290.071 51.2034 290.203 51.2571C290.247 51.2766 290.291 51.2913 290.335 51.3108C290.335 51.3108 290.354 51.3157 290.364 51.3206C290.437 51.3499 290.515 51.3743 290.588 51.3987C290.593 51.3987 290.598 51.3987 290.608 51.4036C290.608 51.4036 290.632 51.4084 290.642 51.4134C290.676 51.4231 290.71 51.4329 290.745 51.4475C290.759 51.4475 290.769 51.4524 290.784 51.4573C290.862 51.4817 290.945 51.5012 291.023 51.5208C291.072 51.5305 291.116 51.5403 291.165 51.55C291.165 51.55 291.189 51.55 291.204 51.5598C291.277 51.5745 291.355 51.5891 291.428 51.5989C291.433 51.5989 291.443 51.5989 291.448 51.5989C291.496 51.6037 291.545 51.6135 291.594 51.6184C291.692 51.6282 291.789 51.6379 291.887 51.6428C291.936 51.6428 291.985 51.6428 292.033 51.6477C292.082 51.6477 292.131 51.6477 292.18 51.6477C292.663 51.6477 293.132 51.5793 293.586 51.4524C291.033 50.7298 289.134 48.0789 289.134 44.9154C289.134 41.7518 291.028 39.1009 293.586 38.3784C294.035 38.2514 294.504 38.1831 294.992 38.1831C295.69 38.1831 296.354 38.3247 296.974 38.5785C297.018 38.598 297.062 38.6176 297.106 38.6371C297.457 38.7933 297.789 38.9886 298.102 39.2132C298.258 39.3255 298.409 39.4475 298.556 39.5793C298.595 39.6135 298.629 39.6428 298.663 39.677C299.239 40.2091 299.723 40.8682 300.089 41.6103C300.133 41.703 300.177 41.7958 300.221 41.8934C300.304 42.0838 300.382 42.2791 300.45 42.4842C300.484 42.5866 300.514 42.6843 300.548 42.7917C300.577 42.8942 300.606 42.9967 300.631 43.1041C300.655 43.2115 300.68 43.3141 300.699 43.4215C300.733 43.5826 300.758 43.7437 300.777 43.9097C300.792 44.0171 300.802 44.1294 300.811 44.2417C300.811 44.2954 300.821 44.3539 300.826 44.4076C300.826 44.4663 300.831 44.52 300.836 44.5785C300.841 44.6371 300.836 44.6908 300.841 44.7494C300.841 44.808 300.841 44.8666 300.841 44.9251C300.841 44.9837 300.841 45.0423 300.841 45.1009C300.841 45.1741 300.841 45.2425 300.836 45.3157C300.836 45.345 300.836 45.3743 300.836 45.4036C300.836 45.4475 300.836 45.4866 300.831 45.5305C300.831 45.5598 300.831 45.5891 300.826 45.6184C300.826 45.6623 300.821 45.7063 300.816 45.7453C300.816 45.7746 300.816 45.8039 300.811 45.8283C300.811 45.8722 300.806 45.9162 300.802 45.9601C300.802 45.9894 300.802 46.0138 300.792 46.0431C300.792 46.087 300.782 46.131 300.777 46.1701C300.777 46.1994 300.772 46.2286 300.767 46.2579C300.763 46.3018 300.758 46.3458 300.753 46.3849C300.753 46.4093 300.748 46.4337 300.743 46.463C300.738 46.5118 300.728 46.5558 300.723 46.5997C300.723 46.6241 300.719 46.6485 300.714 46.6729C300.704 46.7413 300.694 46.8096 300.68 46.878C300.68 46.8877 300.68 46.8926 300.68 46.9024C300.67 46.9609 300.66 47.0195 300.645 47.0781C300.645 47.1025 300.636 47.127 300.631 47.1562C300.621 47.2002 300.611 47.2441 300.606 47.2881C300.601 47.3124 300.597 47.3368 300.592 47.3613C300.582 47.4052 300.572 47.4442 300.562 47.4882C300.558 47.5175 300.548 47.5468 300.543 47.5761C300.533 47.6103 300.523 47.6493 300.518 47.6835C300.509 47.7128 300.504 47.7469 300.494 47.7762C300.484 47.8104 300.474 47.8495 300.465 47.8836C300.455 47.913 300.45 47.9422 300.44 47.9715C300.431 48.0106 300.421 48.0496 300.406 48.0887C300.396 48.1131 300.391 48.1424 300.382 48.1668C300.372 48.2059 300.357 48.24 300.348 48.2791C300.338 48.3084 300.328 48.3377 300.323 48.367C300.304 48.4255 300.284 48.489 300.265 48.5476C300.255 48.5769 300.245 48.6062 300.235 48.6355C300.226 48.6696 300.211 48.7038 300.201 48.738C300.191 48.7673 300.177 48.8014 300.167 48.8308C300.157 48.8649 300.143 48.8942 300.133 48.9284C300.123 48.9577 300.108 48.987 300.099 49.0114C300.084 49.0456 300.069 49.0797 300.06 49.1139C300.05 49.1432 300.035 49.1725 300.025 49.2018C300.011 49.2311 300.001 49.2652 299.986 49.2945C299.972 49.3239 299.962 49.358 299.947 49.3873C299.933 49.4166 299.918 49.4508 299.908 49.48C299.894 49.5094 299.884 49.5387 299.869 49.5679C299.855 49.5972 299.84 49.6265 299.83 49.6558C299.815 49.6851 299.801 49.7144 299.786 49.7486C299.772 49.7779 299.757 49.8072 299.742 49.8364C299.728 49.8657 299.713 49.8951 299.698 49.9194C299.688 49.939 299.679 49.9536 299.674 49.9731C299.654 50.0122 299.635 50.0512 299.615 50.0903C299.601 50.1196 299.581 50.1538 299.566 50.1831C299.552 50.2075 299.542 50.2319 299.527 50.2563C299.508 50.2905 299.488 50.3247 299.474 50.3539C299.459 50.3784 299.449 50.4028 299.435 50.4223C299.415 50.4565 299.396 50.4906 299.376 50.5248C299.366 50.5443 299.352 50.5639 299.342 50.5834C299.322 50.6176 299.303 50.6469 299.283 50.6811C299.269 50.7054 299.254 50.7298 299.239 50.7543C299.22 50.7835 299.2 50.8129 299.181 50.847C299.166 50.8666 299.156 50.8861 299.142 50.9056C299.117 50.9398 299.098 50.974 299.073 51.0081C299.064 51.0228 299.054 51.0374 299.039 51.057C299.015 51.096 298.99 51.1302 298.966 51.1644C298.966 51.1644 298.966 51.1644 298.966 51.1692C298.898 51.262 298.829 51.3597 298.761 51.4475C298.737 51.4817 298.707 51.5158 298.683 51.55C298.673 51.5647 298.658 51.5793 298.649 51.594C298.619 51.6282 298.595 51.6623 298.566 51.6965C298.556 51.7111 298.546 51.7209 298.536 51.7356C298.507 51.7697 298.478 51.8039 298.448 51.8381C298.439 51.8478 298.429 51.8625 298.419 51.8722C298.39 51.9064 298.361 51.9406 298.331 51.9748C298.322 51.9894 298.307 51.9992 298.297 52.0138C298.268 52.048 298.239 52.0773 298.209 52.1115C298.199 52.1212 298.185 52.1359 298.175 52.1457C298.146 52.1798 298.112 52.214 298.077 52.2481C297.916 52.4142 297.755 52.5753 297.584 52.7315C297.584 52.7315 297.584 52.7315 297.579 52.7315C297.54 52.7656 297.506 52.7998 297.467 52.834C297.457 52.8389 297.453 52.8487 297.443 52.8535C297.409 52.8828 297.374 52.9121 297.34 52.9414C297.33 52.9512 297.316 52.9609 297.306 52.9707C297.272 53 297.233 53.0293 297.199 53.0586L297.174 53.0781C297.135 53.1074 297.096 53.1416 297.057 53.1709C297.057 53.1709 297.047 53.1757 297.047 53.1807C297.003 53.2148 296.964 53.2441 296.92 53.2783C296.74 53.4101 296.554 53.537 296.364 53.659C296.359 53.659 296.354 53.664 296.349 53.6688C296.31 53.6932 296.266 53.7177 296.227 53.7421C296.217 53.7469 296.208 53.7567 296.198 53.7616C296.159 53.786 296.115 53.8104 296.076 53.8348C296.066 53.8397 296.056 53.8446 296.051 53.8495C296.007 53.8739 295.963 53.8983 295.92 53.9227C295.92 53.9227 295.91 53.9227 295.905 53.9276C295.856 53.952 295.812 53.9764 295.763 54.0008H295.754C295.705 54.0301 295.656 54.0545 295.607 54.0789C295.407 54.1765 295.202 54.2644 294.992 54.3474C294.992 54.3474 294.987 54.3474 294.982 54.3474C294.548 54.5134 294.094 54.6453 293.63 54.7331C293.171 54.821 292.702 54.8649 292.224 54.8649H295.031L294.972 54.9186Z" fill="#001DFF"/>
</g>
</svg>
