<svg width="83" height="442" viewBox="0 0 83 442" fill="none" xmlns="http://www.w3.org/2000/svg">
<path d="M16 25H17.3333H28" stroke="#6E6E73" stroke-width="1.33333" stroke-linecap="round" stroke-linejoin="round"/>
<path d="M26.6667 24.9999V34.3333C26.6667 34.6869 26.5262 35.026 26.2762 35.2761C26.0261 35.5261 25.687 35.6666 25.3334 35.6666H18.6667C18.3131 35.6666 17.9739 35.5261 17.7239 35.2761C17.4738 35.026 17.3334 34.6869 17.3334 34.3333V24.9999M19.3334 24.9999V23.6666C19.3334 23.313 19.4738 22.9738 19.7239 22.7238C19.9739 22.4737 20.3131 22.3333 20.6667 22.3333H23.3334C23.687 22.3333 24.0261 22.4737 24.2762 22.7238C24.5262 22.9738 24.6667 23.313 24.6667 23.6666V24.9999" stroke="#6E6E73" stroke-linecap="round" stroke-linejoin="round"/>
<path d="M20.6666 28.3333V32.3333" stroke="#6E6E73" stroke-linecap="round" stroke-linejoin="round"/>
<path d="M23.3334 28.3333V32.3333" stroke="#6E6E73" stroke-linecap="round" stroke-linejoin="round"/>
<path d="M22 88.3333H28" stroke="#016CCC" stroke-linecap="round" stroke-linejoin="round"/>
<path d="M25 77.3334C25.2652 77.0682 25.6249 76.9192 26 76.9192C26.1857 76.9192 26.3696 76.9558 26.5412 77.0268C26.7128 77.0979 26.8687 77.2021 27 77.3334C27.1313 77.4647 27.2355 77.6206 27.3066 77.7922C27.3776 77.9638 27.4142 78.1477 27.4142 78.3334C27.4142 78.5191 27.3776 78.703 27.3066 78.8746C27.2355 79.0462 27.1313 79.2021 27 79.3334L18.6667 87.6667L16 88.3334L16.6667 85.6667L25 77.3334Z" stroke="#016CCC" stroke-linecap="round" stroke-linejoin="round"/>
<path d="M16 144L22 150L28 144" stroke="#9597A1" stroke-width="2" stroke-linecap="round" stroke-linejoin="round"/>
<path d="M22.3173 185.407C22.28 185.407 22.2428 185.403 22.2064 185.395L15.9829 183.977C15.7157 183.918 15.4752 183.773 15.2978 183.564C15.1205 183.356 15.0159 183.095 15 182.822V172.897C14.9987 172.758 15.0311 172.621 15.0944 172.496C15.1577 172.372 15.2501 172.265 15.3636 172.184C15.4849 172.101 15.6226 172.044 15.7676 172.017C15.9126 171.991 16.0616 171.995 16.2047 172.03L21.5278 173.243C21.8267 173.313 22.1001 173.465 22.3173 173.682C22.5347 173.465 22.8084 173.313 23.1075 173.243L28.4307 172.03C28.5738 171.995 28.7227 171.991 28.8677 172.017C29.0126 172.044 29.1504 172.101 29.2717 172.184C29.3853 172.265 29.4776 172.372 29.5409 172.496C29.6042 172.621 29.6366 172.758 29.6353 172.897V182.824C29.6195 183.098 29.5149 183.358 29.3373 183.567C29.1598 183.776 28.9191 183.92 28.6517 183.98L22.4374 185.395C22.3984 185.404 22.3583 185.409 22.318 185.409L22.3173 185.407ZM15.9459 172.843C15.9395 172.842 15.933 172.842 15.9266 172.843C15.9174 172.859 15.9134 172.877 15.9151 172.896V182.824C15.9245 182.903 15.9569 182.977 16.0082 183.038C16.0596 183.099 16.1277 183.143 16.2039 183.165L21.8675 184.454L21.8598 174.71C21.8447 174.558 21.7836 174.415 21.6848 174.298C21.586 174.182 21.4541 174.099 21.3067 174.06L15.9836 172.847C15.9713 172.844 15.9586 172.843 15.9459 172.843ZM28.6894 172.843C28.6765 172.843 28.6636 172.844 28.6509 172.847L23.3278 174.06C23.1804 174.099 23.0484 174.182 22.9496 174.298C22.8508 174.414 22.7898 174.558 22.7748 174.71L22.7825 184.451L28.4307 183.165C28.5069 183.143 28.5749 183.099 28.6263 183.038C28.6777 182.977 28.7101 182.903 28.7195 182.824V172.898C28.7213 172.88 28.717 172.861 28.7072 172.845C28.701 172.844 28.6948 172.844 28.6887 172.845L28.6894 172.843Z" fill="#808080" stroke="#808080" stroke-width="0.4"/>
<path d="M25.5 313.75H28.125C28.3571 313.75 28.5796 313.842 28.7437 314.006C28.9078 314.17 29 314.393 29 314.625V324.25C29 324.714 28.8156 325.159 28.4874 325.487C28.1592 325.816 27.7141 326 27.25 326M27.25 326C26.7859 326 26.3408 325.816 26.0126 325.487C25.6844 325.159 25.5 324.714 25.5 324.25V312.875C25.5 312.643 25.4078 312.42 25.2437 312.256C25.0796 312.092 24.8571 312 24.625 312H15.875C15.6429 312 15.4204 312.092 15.2563 312.256C15.0922 312.42 15 312.643 15 312.875V323.375C15 324.071 15.2766 324.739 15.7688 325.231C16.2611 325.723 16.9288 326 17.625 326H27.25Z" stroke="#575757" stroke-linecap="round" stroke-linejoin="round"/>
<path d="M18.5 315.5H22" stroke="#575757" stroke-linecap="round" stroke-linejoin="round"/>
<path d="M18.5 319H22" stroke="#575757" stroke-linecap="round" stroke-linejoin="round"/>
<path d="M18.5 322.5H22" stroke="#575757" stroke-linecap="round" stroke-linejoin="round"/>
<path d="M28 212.667C28 210.152 28 208.895 27.219 208.114C26.4379 207.333 25.1808 207.333 22.6667 207.333H21.3333C18.8192 207.333 17.5621 207.333 16.7811 208.114C16 208.895 16 210.152 16 212.667V215.333C16 217.847 16 219.105 16.7811 219.886C17.5621 220.667 18.8192 220.667 21.3333 220.667H22.6667C25.1808 220.667 26.4379 220.667 27.219 219.886C28 219.105 28 217.847 28 215.333V212.667Z" stroke="#808080"/>
<path d="M24.6666 214H19.3333" stroke="#808080" stroke-linecap="round"/>
<path d="M24.6666 211.333H19.3333" stroke="#808080" stroke-linecap="round"/>
<path d="M24.6666 216.667H21.3333" stroke="#808080" stroke-linecap="round"/>
<path d="M29.0266 245.532C28.9474 245.197 28.7862 244.89 28.5591 244.642C28.332 244.394 28.0471 244.214 27.7333 244.12C26.5866 243.823 22 243.823 22 243.823C22 243.823 17.4133 243.823 16.2666 244.148C15.9528 244.242 15.668 244.422 15.4409 244.67C15.2138 244.918 15.0525 245.225 14.9733 245.56C14.7635 246.792 14.6608 248.042 14.6666 249.294C14.6592 250.556 14.7618 251.815 14.9733 253.056C15.0606 253.381 15.2255 253.676 15.4521 253.914C15.6786 254.151 15.9592 254.323 16.2666 254.412C17.4133 254.736 22 254.736 22 254.736C22 254.736 26.5866 254.736 27.7333 254.412C28.0471 254.318 28.332 254.138 28.5591 253.89C28.7862 253.642 28.9474 253.335 29.0266 253C29.2349 251.777 29.3375 250.537 29.3333 249.294C29.3408 248.033 29.2381 246.773 29.0266 245.532V245.532Z" stroke="#808080" stroke-width="0.941176" stroke-linecap="round" stroke-linejoin="round"/>
<path d="M20.5 251.602L24.3333 249.294L20.5 246.986V251.602Z" stroke="#808080" stroke-width="0.941176" stroke-linecap="round" stroke-linejoin="round"/>
<g clip-path="url(#clip0_671_930)">
<path d="M21.4167 279.333H17.3334C17.024 279.333 16.7272 279.456 16.5085 279.675C16.2897 279.894 16.1667 280.19 16.1667 280.5V288.667C16.1667 288.976 16.2897 289.273 16.5085 289.492C16.7272 289.71 17.024 289.833 17.3334 289.833H25.5001C25.8095 289.833 26.1062 289.71 26.325 289.492C26.5438 289.273 26.6667 288.976 26.6667 288.667V284.583" stroke="white" stroke-linecap="round" stroke-linejoin="round"/>
<path d="M25.7916 278.458C26.0237 278.226 26.3384 278.096 26.6666 278.096C26.9948 278.096 27.3096 278.226 27.5416 278.458C27.7737 278.69 27.9041 279.005 27.9041 279.333C27.9041 279.662 27.7737 279.976 27.5416 280.208L22 285.75L19.6666 286.333L20.25 284L25.7916 278.458Z" stroke="white" stroke-linecap="round" stroke-linejoin="round"/>
</g>
<path d="M22.8835 349.033L19.7781 360.621L21.0661 360.967L24.1715 349.379L22.8835 349.033V349.033ZM19.0748 359.24L19.9815 358.275L19.9808 358.262L16.5848 355.075L19.7781 351.672L18.8061 350.759L14.6995 355.135L19.0748 359.241V359.24ZM24.9255 359.24L24.0188 358.275L24.0195 358.262L27.4155 355.075L24.2221 351.672L25.1941 350.759L29.3008 355.135L24.9255 359.241V359.24Z" fill="#6E6E73"/>
<g clip-path="url(#clip1_671_930)">
<path d="M22 397.667C25.6819 397.667 28.6667 394.682 28.6667 391C28.6667 387.318 25.6819 384.333 22 384.333C18.3181 384.333 15.3334 387.318 15.3334 391C15.3334 394.682 18.3181 397.667 22 397.667Z" stroke="#797980" stroke-linecap="round" stroke-linejoin="round"/>
<path d="M20.0602 389C20.2169 388.554 20.5263 388.179 20.9335 387.939C21.3407 387.7 21.8194 387.613 22.285 387.692C22.7505 387.772 23.1727 388.014 23.4769 388.376C23.7811 388.737 23.9476 389.194 23.9468 389.667C23.9468 391 21.9468 391.667 21.9468 391.667" stroke="#797980" stroke-linecap="round" stroke-linejoin="round"/>
<path d="M22 394.333H22.0074" stroke="#797980" stroke-width="1.33333" stroke-linecap="round" stroke-linejoin="round"/>
</g>
<path d="M16 421H19.75C20.413 421 21.0489 421.281 21.5178 421.781C21.9866 422.281 22.25 422.959 22.25 423.667V433C22.25 432.47 22.0525 431.961 21.7008 431.586C21.3492 431.211 20.8723 431 20.375 431H16V421Z" stroke="#6E6E73" stroke-linecap="round" stroke-linejoin="round"/>
<path d="M28.5 421H24.75C24.087 421 23.4511 421.281 22.9822 421.781C22.5134 422.281 22.25 422.959 22.25 423.667V433C22.25 432.47 22.4475 431.961 22.7992 431.586C23.1508 431.211 23.6277 431 24.125 431H28.5V421Z" stroke="#6E6E73" stroke-linecap="round" stroke-linejoin="round"/>
<path d="M60 88.3333H66" stroke="#2092D7" stroke-linecap="round" stroke-linejoin="round"/>
<path d="M63 77.3334C63.2652 77.0682 63.6249 76.9192 64 76.9192C64.1857 76.9192 64.3696 76.9558 64.5412 77.0268C64.7128 77.0979 64.8687 77.2021 65 77.3334C65.1313 77.4647 65.2355 77.6206 65.3066 77.7922C65.3776 77.9638 65.4142 78.1477 65.4142 78.3334C65.4142 78.5191 65.3776 78.703 65.3066 78.8746C65.2355 79.0462 65.1313 79.2021 65 79.3334L56.6667 87.6667L54 88.3334L54.6667 85.6667L63 77.3334Z" stroke="#2092D7" stroke-linecap="round" stroke-linejoin="round"/>
<path d="M16 51H17.3333H28" stroke="#EA3029" stroke-width="1.33333" stroke-linecap="round" stroke-linejoin="round"/>
<path d="M26.6667 50.9999V60.3333C26.6667 60.6869 26.5262 61.026 26.2762 61.2761C26.0261 61.5261 25.687 61.6666 25.3334 61.6666H18.6667C18.3131 61.6666 17.9739 61.5261 17.7239 61.2761C17.4738 61.026 17.3334 60.6869 17.3334 60.3333V50.9999M19.3334 50.9999V49.6666C19.3334 49.313 19.4738 48.9738 19.7239 48.7238C19.9739 48.4737 20.3131 48.3333 20.6667 48.3333H23.3334C23.687 48.3333 24.0261 48.4737 24.2762 48.7238C24.5262 48.9738 24.6667 49.313 24.6667 49.6666V50.9999" stroke="#EA3029" stroke-linecap="round" stroke-linejoin="round"/>
<path d="M20.6666 54.3333V58.3333" stroke="#EA3029" stroke-linecap="round" stroke-linejoin="round"/>
<path d="M23.3334 54.3333V58.3333" stroke="#EA3029" stroke-linecap="round" stroke-linejoin="round"/>
<path d="M53 51H54.3333H65" stroke="#EA5550" stroke-width="1.33333" stroke-linecap="round" stroke-linejoin="round"/>
<path d="M63.6667 50.9999V60.3333C63.6667 60.6869 63.5262 61.026 63.2762 61.2761C63.0261 61.5261 62.687 61.6666 62.3334 61.6666H55.6667C55.3131 61.6666 54.9739 61.5261 54.7239 61.2761C54.4738 61.026 54.3334 60.6869 54.3334 60.3333V50.9999M56.3334 50.9999V49.6666C56.3334 49.313 56.4738 48.9738 56.7239 48.7238C56.9739 48.4737 57.3131 48.3333 57.6667 48.3333H60.3334C60.687 48.3333 61.0261 48.4737 61.2762 48.7238C61.5262 48.9738 61.6667 49.313 61.6667 49.6666V50.9999" stroke="#EA5550" stroke-linecap="round" stroke-linejoin="round"/>
<path d="M57.6666 54.3333V58.3333" stroke="#EA5550" stroke-linecap="round" stroke-linejoin="round"/>
<path d="M60.3334 54.3333V58.3333" stroke="#EA5550" stroke-linecap="round" stroke-linejoin="round"/>
<path d="M53 25H54.3333H65" stroke="#9299A1" stroke-width="1.33333" stroke-linecap="round" stroke-linejoin="round"/>
<path d="M63.6667 24.9999V34.3333C63.6667 34.6869 63.5262 35.026 63.2762 35.2761C63.0261 35.5261 62.687 35.6666 62.3334 35.6666H55.6667C55.3131 35.6666 54.9739 35.5261 54.7239 35.2761C54.4738 35.026 54.3334 34.6869 54.3334 34.3333V24.9999M56.3334 24.9999V23.6666C56.3334 23.313 56.4738 22.9738 56.7239 22.7238C56.9739 22.4737 57.3131 22.3333 57.6667 22.3333H60.3334C60.687 22.3333 61.0261 22.4737 61.2762 22.7238C61.5262 22.9738 61.6667 23.313 61.6667 23.6666V24.9999" stroke="#9299A1" stroke-linecap="round" stroke-linejoin="round"/>
<path d="M57.6666 28.3333V32.3333" stroke="#9299A1" stroke-linecap="round" stroke-linejoin="round"/>
<path d="M60.3334 28.3333V32.3333" stroke="#9299A1" stroke-linecap="round" stroke-linejoin="round"/>
<path d="M59.3173 185.407C59.28 185.407 59.2428 185.403 59.2064 185.395L52.9829 183.977C52.7157 183.918 52.4752 183.773 52.2978 183.564C52.1205 183.356 52.0159 183.095 52 182.822V172.897C51.9987 172.758 52.0311 172.621 52.0944 172.496C52.1577 172.372 52.2501 172.265 52.3636 172.184C52.4849 172.101 52.6226 172.044 52.7676 172.017C52.9126 171.991 53.0616 171.995 53.2047 172.03L58.5278 173.243C58.8267 173.313 59.1001 173.465 59.3173 173.682C59.5347 173.465 59.8084 173.313 60.1075 173.243L65.4307 172.03C65.5738 171.995 65.7227 171.991 65.8677 172.017C66.0126 172.044 66.1504 172.101 66.2717 172.184C66.3853 172.265 66.4776 172.372 66.5409 172.496C66.6042 172.621 66.6366 172.758 66.6353 172.897V182.824C66.6195 183.098 66.5149 183.358 66.3373 183.567C66.1598 183.776 65.9191 183.92 65.6517 183.98L59.4374 185.395C59.3984 185.404 59.3583 185.409 59.318 185.409L59.3173 185.407ZM52.9459 172.843C52.9395 172.842 52.933 172.842 52.9266 172.843C52.9174 172.859 52.9134 172.877 52.9151 172.896V182.824C52.9245 182.903 52.9569 182.977 53.0082 183.038C53.0596 183.099 53.1277 183.143 53.2039 183.165L58.8675 184.454L58.8598 174.71C58.8447 174.558 58.7836 174.415 58.6848 174.298C58.586 174.182 58.4541 174.099 58.3067 174.06L52.9836 172.847C52.9713 172.844 52.9586 172.843 52.9459 172.843ZM65.6894 172.843C65.6765 172.843 65.6636 172.844 65.6509 172.847L60.3278 174.06C60.1804 174.099 60.0484 174.182 59.9496 174.298C59.8508 174.414 59.7898 174.558 59.7748 174.71L59.7825 184.451L65.4307 183.165C65.5069 183.143 65.5749 183.099 65.6263 183.038C65.6777 182.977 65.7101 182.903 65.7195 182.824V172.898C65.7213 172.88 65.717 172.861 65.7072 172.845C65.701 172.844 65.6948 172.844 65.6887 172.845L65.6894 172.843Z" fill="#666B71" stroke="#666B71" stroke-width="0.4"/>
<path d="M62.5 313.75H65.125C65.3571 313.75 65.5796 313.842 65.7437 314.006C65.9078 314.17 66 314.393 66 314.625V324.25C66 324.714 65.8156 325.159 65.4874 325.487C65.1592 325.816 64.7141 326 64.25 326M64.25 326C63.7859 326 63.3408 325.816 63.0126 325.487C62.6844 325.159 62.5 324.714 62.5 324.25V312.875C62.5 312.643 62.4078 312.42 62.2437 312.256C62.0796 312.092 61.8571 312 61.625 312H52.875C52.6429 312 52.4204 312.092 52.2563 312.256C52.0922 312.42 52 312.643 52 312.875V323.375C52 324.071 52.2766 324.739 52.7688 325.231C53.2611 325.723 53.9288 326 54.625 326H64.25Z" stroke="#666B71" stroke-linecap="round" stroke-linejoin="round"/>
<path d="M55.5 315.5H59" stroke="#666B71" stroke-linecap="round" stroke-linejoin="round"/>
<path d="M55.5 319H59" stroke="#666B71" stroke-linecap="round" stroke-linejoin="round"/>
<path d="M55.5 322.5H59" stroke="#666B71" stroke-linecap="round" stroke-linejoin="round"/>
<path d="M65 212.667C65 210.152 65 208.895 64.219 208.114C63.4379 207.333 62.1808 207.333 59.6667 207.333H58.3333C55.8192 207.333 54.5621 207.333 53.7811 208.114C53 208.895 53 210.152 53 212.667V215.333C53 217.847 53 219.105 53.7811 219.886C54.5621 220.667 55.8192 220.667 58.3333 220.667H59.6667C62.1808 220.667 63.4379 220.667 64.219 219.886C65 219.105 65 217.847 65 215.333V212.667Z" stroke="#666B71"/>
<path d="M61.6666 214H56.3333" stroke="#666B71" stroke-linecap="round"/>
<path d="M61.6666 211.333H56.3333" stroke="#666B71" stroke-linecap="round"/>
<path d="M61.6666 216.667H58.3333" stroke="#666B71" stroke-linecap="round"/>
<path d="M66.0266 245.532C65.9474 245.197 65.7862 244.89 65.5591 244.642C65.332 244.394 65.0471 244.214 64.7333 244.12C63.5866 243.823 59 243.823 59 243.823C59 243.823 54.4133 243.823 53.2666 244.148C52.9528 244.242 52.668 244.422 52.4409 244.67C52.2138 244.918 52.0525 245.225 51.9733 245.56C51.7635 246.792 51.6608 248.042 51.6666 249.294C51.6592 250.556 51.7618 251.815 51.9733 253.056C52.0606 253.381 52.2255 253.676 52.4521 253.914C52.6786 254.151 52.9592 254.323 53.2666 254.412C54.4133 254.736 59 254.736 59 254.736C59 254.736 63.5866 254.736 64.7333 254.412C65.0471 254.318 65.332 254.138 65.5591 253.89C65.7862 253.642 65.9474 253.335 66.0266 253C66.2349 251.777 66.3375 250.537 66.3333 249.294C66.3408 248.033 66.2381 246.773 66.0266 245.532V245.532Z" stroke="#666B71" stroke-width="0.941176" stroke-linecap="round" stroke-linejoin="round"/>
<path d="M57.5 251.602L61.3333 249.294L57.5 246.986V251.602Z" stroke="#666B71" stroke-width="0.941176" stroke-linecap="round" stroke-linejoin="round"/>
<path d="M54 144L60 150L66 144" stroke="#494D51" stroke-width="2" stroke-linecap="round" stroke-linejoin="round"/>
<g clip-path="url(#clip2_671_930)">
<path d="M58.4167 279.333H54.3334C54.024 279.333 53.7272 279.456 53.5085 279.675C53.2897 279.894 53.1667 280.19 53.1667 280.5V288.667C53.1667 288.976 53.2897 289.273 53.5085 289.492C53.7272 289.71 54.024 289.833 54.3334 289.833H62.5001C62.8095 289.833 63.1062 289.71 63.325 289.492C63.5438 289.273 63.6667 288.976 63.6667 288.667V284.583" stroke="white" stroke-linecap="round" stroke-linejoin="round"/>
<path d="M62.7916 278.458C63.0237 278.226 63.3384 278.096 63.6666 278.096C63.9948 278.096 64.3096 278.226 64.5416 278.458C64.7737 278.69 64.9041 279.005 64.9041 279.333C64.9041 279.662 64.7737 279.976 64.5416 280.208L59 285.75L56.6666 286.333L57.25 284L62.7916 278.458Z" stroke="white" stroke-linecap="round" stroke-linejoin="round"/>
</g>
<path d="M59.8835 349.033L56.7781 360.621L58.0661 360.967L61.1715 349.379L59.8835 349.033V349.033ZM56.0748 359.24L56.9815 358.275L56.9808 358.262L53.5848 355.075L56.7781 351.672L55.8061 350.759L51.6995 355.135L56.0748 359.241V359.24ZM61.9255 359.24L61.0188 358.275L61.0195 358.262L64.4155 355.075L61.2221 351.672L62.1941 350.759L66.3008 355.135L61.9255 359.241V359.24Z" fill="#9299A1"/>
<g clip-path="url(#clip3_671_930)">
<path d="M59 397.667C62.6819 397.667 65.6667 394.682 65.6667 391C65.6667 387.318 62.6819 384.333 59 384.333C55.3181 384.333 52.3334 387.318 52.3334 391C52.3334 394.682 55.3181 397.667 59 397.667Z" stroke="#797980" stroke-linecap="round" stroke-linejoin="round"/>
<path d="M57.0602 389C57.2169 388.554 57.5263 388.179 57.9335 387.939C58.3407 387.7 58.8194 387.613 59.285 387.692C59.7505 387.772 60.1727 388.014 60.4769 388.376C60.7811 388.737 60.9476 389.194 60.9468 389.667C60.9468 391 58.9468 391.667 58.9468 391.667" stroke="#797980" stroke-linecap="round" stroke-linejoin="round"/>
<path d="M59 394.333H59.0074" stroke="#797980" stroke-width="1.33333" stroke-linecap="round" stroke-linejoin="round"/>
</g>
<path d="M53 421H56.75C57.413 421 58.0489 421.281 58.5178 421.781C58.9866 422.281 59.25 422.959 59.25 423.667V433C59.25 432.47 59.0525 431.961 58.7008 431.586C58.3492 431.211 57.8723 431 57.375 431H53V421Z" stroke="#9299A1" stroke-linecap="round" stroke-linejoin="round"/>
<path d="M65.5 421H61.75C61.087 421 60.4511 421.281 59.9822 421.781C59.5134 422.281 59.25 422.959 59.25 423.667V433C59.25 432.47 59.4475 431.961 59.7992 431.586C60.1508 431.211 60.6277 431 61.125 431H65.5V421Z" stroke="#9299A1" stroke-linecap="round" stroke-linejoin="round"/>
<path d="M21.6001 118.833H27.6001" stroke="#6E6E73" stroke-linecap="round" stroke-linejoin="round"/>
<path d="M24.6001 107.833C24.8653 107.568 25.225 107.419 25.6001 107.419C25.7858 107.419 25.9697 107.456 26.1413 107.527C26.3129 107.598 26.4688 107.702 26.6001 107.833C26.7314 107.965 26.8356 108.121 26.9067 108.292C26.9777 108.464 27.0143 108.648 27.0143 108.833C27.0143 109.019 26.9777 109.203 26.9067 109.375C26.8356 109.546 26.7314 109.702 26.6001 109.833L18.2668 118.167L15.6001 118.833L16.2668 116.167L24.6001 107.833Z" stroke="#6E6E73" stroke-linecap="round" stroke-linejoin="round"/>
<path d="M59.6001 118.833H65.6001" stroke="#9299A1" stroke-linecap="round" stroke-linejoin="round"/>
<path d="M62.6001 107.833C62.8653 107.568 63.225 107.419 63.6001 107.419C63.7858 107.419 63.9697 107.456 64.1413 107.527C64.3129 107.598 64.4688 107.702 64.6001 107.833C64.7314 107.965 64.8356 108.121 64.9067 108.292C64.9777 108.464 65.0143 108.648 65.0143 108.833C65.0143 109.019 64.9777 109.203 64.9067 109.375C64.8356 109.546 64.7314 109.702 64.6001 109.833L56.2668 118.167L53.6001 118.833L54.2668 116.167L62.6001 107.833Z" stroke="#9299A1" stroke-linecap="round" stroke-linejoin="round"/>
<defs>
<clipPath id="clip0_671_930">
<rect width="14" height="14" fill="white" transform="translate(15 277)"/>
</clipPath>
<clipPath id="clip1_671_930">
<rect width="16" height="16" fill="white" transform="translate(14 383)"/>
</clipPath>
<clipPath id="clip2_671_930">
<rect width="14" height="14" fill="white" transform="translate(52 277)"/>
</clipPath>
<clipPath id="clip3_671_930">
<rect width="16" height="16" fill="white" transform="translate(51 383)"/>
</clipPath>
</defs>
</svg>
