<svg width="24" height="230" viewBox="0 0 24 230" fill="none" xmlns="http://www.w3.org/2000/svg">
<g clip-path="url(#clip0_6_109)">
<path d="M12.5721 10.2034H21.6101C21.7074 10.7312 21.7576 11.2667 21.7601 11.8034C21.7896 13.4826 21.3998 15.1427 20.6261 16.6334C19.8903 18.0292 18.7669 19.1828 17.3911 19.9554C15.9188 20.7727 14.2568 21.1867 12.5731 21.1554C11.2924 21.1603 10.0242 20.9037 8.8461 20.4014C7.70385 19.9298 6.666 19.2372 5.79217 18.3633C4.91833 17.4895 4.22572 16.4516 3.7541 15.3094C3.25641 14.1299 3 12.8626 3 11.5824C3 10.3022 3.25641 9.03491 3.7541 7.85539C4.22473 6.71174 4.91679 5.67241 5.79049 4.79717C6.66419 3.92192 7.70229 3.22803 8.8451 2.75539C10.0232 2.25307 11.2914 1.9965 12.5721 2.00139C14.9584 1.9597 17.2651 2.86008 18.9921 4.50739L16.3851 7.01239C15.8804 6.52338 15.2829 6.14026 14.6279 5.88557C13.9729 5.63089 13.2736 5.50979 12.5711 5.52939C11.5247 5.52235 10.4964 5.80252 9.5981 6.33939C8.69107 6.87843 7.94067 7.64518 7.42129 8.56361C6.90191 9.48205 6.63158 10.5203 6.6371 11.5754C6.63168 12.6305 6.90205 13.6687 7.42142 14.5871C7.9408 15.5055 8.69114 16.2723 9.5981 16.8114C10.4964 17.3483 11.5247 17.6284 12.5711 17.6214C13.2475 17.6282 13.9206 17.5269 14.5651 17.3214C15.1034 17.1577 15.6104 16.9048 16.0651 16.5734C16.4492 16.2798 16.7923 15.9361 17.0851 15.5514C17.3463 15.2198 17.5621 14.8549 17.7271 14.4664C17.8564 14.1538 17.9506 13.8278 18.0081 13.4944H12.5721V10.2034Z" fill="white"/>
</g>
<path d="M11.9988 30C6.4775 30 2.00001 34.5906 2.00001 40.2534C1.99775 42.4026 2.6569 44.4982 3.88429 46.2439C5.11169 47.9897 6.84526 49.2974 8.84 49.9822C9.34 50.0767 9.5225 49.7601 9.5225 49.4882C9.5225 49.2444 9.51375 48.5997 9.50875 47.7444C6.7275 48.3635 6.14 46.3695 6.14 46.3695C5.68625 45.1849 5.03 44.8695 5.03 44.8695C4.12125 44.2338 5.0975 44.2466 5.0975 44.2466C6.10125 44.3193 6.62875 45.3036 6.62875 45.3036C7.52125 46.8699 8.97 46.418 9.54 46.155C9.63 45.4925 9.88875 45.0406 10.175 44.784C7.955 44.5249 5.62 43.6453 5.62 39.7173C5.62 38.5977 6.01 37.6824 6.65 36.965C6.54625 36.7058 6.20375 35.6629 6.7475 34.2523C6.7475 34.2523 7.5875 33.9765 9.4975 35.3029C10.3134 35.0752 11.1554 34.9593 12.0013 34.9582C12.8471 34.9599 13.6891 35.0763 14.505 35.3042C16.4137 33.9778 17.2525 34.2535 17.2525 34.2535C17.7975 35.6654 17.455 36.7071 17.3525 36.9663C17.9937 37.6837 18.38 38.599 18.38 39.7186C18.38 43.6568 16.0425 44.5236 13.815 44.7776C14.1737 45.0942 14.4937 45.7197 14.4937 46.6759C14.4937 48.0469 14.4812 49.1524 14.4812 49.4882C14.4812 49.7626 14.6612 50.0818 15.1687 49.9809C17.1616 49.2945 18.893 47.9863 20.1187 46.241C21.3443 44.4956 22.0024 42.4013 22 40.2534C22 34.5906 17.5225 30 11.9988 30Z" fill="white"/>
<path fill-rule="evenodd" clip-rule="evenodd" d="M3.43799 224C3.19185 224 2.95928 223.942 2.75617 223.839L9.85971 217.176L11.7668 218.32C11.9003 218.404 12.0801 218.411 12.2243 218.325L14.1397 217.176L21.2437 223.839C21.0405 223.942 20.8081 224 20.5619 224L3.43799 224ZM2.17 223.292L9.14709 216.748L2.2378 212.602C2.08766 212.813 2 213.065 2 213.335V222.664C2 222.891 2.0616 223.104 2.17008 223.292L2.17 223.292ZM2.91805 212.091L11.9999 217.54L21.0817 212.091C20.9204 212.032 20.7448 212 20.5617 212H3.43799C3.25493 212 3.07951 212.032 2.91805 212.091V212.091ZM21.7621 212.602L14.8532 216.748L21.8299 223.292C21.9385 223.105 22 222.891 22 222.664V213.336C22 213.066 21.9125 212.813 21.7624 212.603L21.7621 212.602Z" fill="#979FAF"/>
<path d="M12.0001 184.005V178.629C11.9999 178.437 11.9125 178.255 11.763 178.135C11.6133 178.016 11.418 177.972 11.2324 178.017L2.47858 180.123C2.34228 180.156 2.22082 180.235 2.13404 180.346C2.04726 180.457 2 180.595 2 180.736V197.37C2 197.537 2.06566 197.698 2.1826 197.816C2.29939 197.934 2.45796 198 2.62312 198H21.3771C21.5422 198 21.7008 197.934 21.8176 197.816C21.9345 197.698 22 197.537 22 197.37V186.908C22.0002 186.767 21.9527 186.629 21.8658 186.518C21.7789 186.407 21.6574 186.328 21.5209 186.296L12.0001 184.005ZM8.47981 195.846H5.48923V192.822H8.47981V195.846ZM8.47981 190.877H5.48923V187.854H8.47981V190.877ZM8.47981 185.907H5.48923V182.884H8.47981V185.907ZM18.375 195.845H15.3844V192.822H18.375V195.845ZM18.375 190.876H15.3844V187.853H18.375V190.876Z" fill="#979FAF"/>
<path d="M12 148C6.48572 148 2 152.486 2 158C2 163.514 6.4858 168 12 168C17.5142 168 22 163.514 22 158C22 152.486 17.5142 148 12 148ZM12 152.6C13.8001 152.6 15.2856 154.143 15.2856 156.029C15.2856 157.914 13.7998 159.457 12 159.457C10.1999 159.457 8.71437 157.914 8.71437 156.029C8.71437 154.143 10.1999 152.6 12 152.6ZM12 166.857C9.68577 166.857 7.48571 165.971 5.82856 164.343C7.51422 162.086 9.71428 160.857 12 160.857C14.2857 160.857 16.4858 162.086 18.1714 164.343C16.5143 165.971 14.3142 166.857 12 166.857Z" fill="#979FAF"/>
<path d="M11.6192 132.011C11.175 131.859 10.8573 131.447 10.8573 130.963C10.8573 130.35 11.3694 129.852 12.0002 129.852C12.631 129.852 13.1431 130.35 13.1431 130.963C13.1431 131.447 12.8254 131.859 12.3812 132.011V133.933C12.3812 134.128 12.2104 134.297 12.0002 134.297C11.7959 134.297 11.6192 134.134 11.6192 133.933V132.011ZM6.28577 126.148C5.02246 126.152 4 127.141 4 128.377V135.771C4 137.002 5.02556 138 6.29256 138H17.7074C18.9738 138 20 137.01 20 135.771V128.377C20 127.148 18.9782 126.151 17.7142 126.148V123.555C17.7142 120.487 15.1496 118 11.9998 118C8.84399 118 6.28541 120.487 6.28541 123.555V126.148H6.28577ZM8.57153 126.148V123.556C8.57153 121.71 10.1068 120.222 12.0002 120.222C13.8897 120.222 15.4288 121.715 15.4288 123.556V126.148H8.57153Z" fill="#979FAF"/>
<path fill-rule="evenodd" clip-rule="evenodd" d="M22 108H18V101.001C18 99.081 17.153 98.01 15.634 98.01C13.981 98.01 13 99.126 13 101.001V108H9.00002V95H13V96.462C13 96.462 14.255 94.26 17.083 94.26C19.912 94.26 22 95.986 22 99.558V108ZM4.44202 92.921C4.12007 92.9198 3.8015 92.8552 3.50451 92.7309C3.20753 92.6066 2.93795 92.4249 2.71118 92.1964C2.4844 91.9679 2.30488 91.6969 2.18286 91.399C2.06083 91.101 1.9987 90.782 2.00002 90.46C1.99884 90.1381 2.06106 89.8192 2.18314 89.5214C2.30522 89.2235 2.48477 88.9527 2.71153 88.7242C2.93829 88.4958 3.20783 88.3143 3.50475 88.19C3.80166 88.0657 4.12015 88.0012 4.44202 88C5.09189 88.0026 5.71411 88.2633 6.17186 88.7246C6.62961 89.1859 6.88541 89.8101 6.88302 90.46C6.88447 90.7819 6.82246 91.1009 6.70055 91.3989C6.57864 91.6968 6.39921 91.9678 6.17251 92.1963C5.94582 92.4249 5.6763 92.6065 5.37938 92.7309C5.08245 92.8552 4.76393 92.9198 4.44202 92.921V92.921ZM2.00002 108H7.00002V95H2.00002V108Z" fill="white"/>
<path d="M15.1906 61.32H17V58.14C16.1239 58.0454 15.2437 57.9986 14.3628 58C11.7449 58 9.95476 59.66 9.95476 62.7V65.32H7V68.88H9.95476V78H13.4966V68.88H16.4418L16.8845 65.32H13.4966V63.05C13.4966 62 13.7661 61.32 15.1906 61.32Z" fill="white"/>
<defs>
<clipPath id="clip0_6_109">
<rect width="24" height="24" fill="white"/>
</clipPath>
</defs>
</svg>
