<svg xmlns="http://www.w3.org/2000/svg" xmlns:xlink="http://www.w3.org/1999/xlink" width="155" height="192" fill="none" xmlns:v="https://vecta.io/nano"><style><![CDATA[.B{stroke-linecap:round}.C{stroke-linejoin:round}.D{stroke:#9299a1}]]></style><g clip-path="url(#A)"><g fill="#9597a1"><path d="M15.803 14.074l-.728.218-.229.703 5.13 4.94c.046.042.104.064.164.064s.118-.022.164-.064l.628-.608c.044-.042.067-.098.067-.158s-.023-.113-.067-.156l-5.13-4.94z"/><use xlink:href="#D"/><path d="M5.443 11.309h1.418c.244 0 .443-.192.443-.427s-.199-.427-.443-.427H5.443c-.244 0-.443.192-.443.427s.199.427.443.427zm2.654-3.725a.45.45 0 0 0 .31.124c.111 0 .23-.043.315-.124a.42.42 0 0 0 0-.606L7.72 6.014c-.173-.166-.452-.166-.625 0a.42.42 0 0 0 0 .606l1.001.964z"/><use xlink:href="#E"/><use xlink:href="#F"/><path d="M9.979 14.163l2.304-.03 1.329 1.813a.46.46 0 0 0 .363.179c.022 0 .044 0 .071-.004.164-.026.301-.141.35-.294l.687-2.12 2.198-.657a.43.43 0 0 0 .306-.341.42.42 0 0 0-.182-.414l-1.879-1.28.027-2.219c.005-.162-.089-.311-.239-.384s-.332-.06-.465.038l-1.848 1.327-2.18-.713a.45.45 0 0 0-.456.102.41.41 0 0 0-.106.435l.74 2.103-1.378 1.775c-.102.132-.115.307-.04.448s.222.23.399.235z"/></g><g fill="#9299a1"><use xlink:href="#G"/><path d="M53.146 6.214a.43.43 0 0 0 .443-.427V4.427c0-.235-.195-.427-.443-.427s-.443.192-.443.427v1.361c0 .239.199.427.443.427z"/><use xlink:href="#H"/><path d="M49.097 7.584a.45.45 0 0 0 .31.124.46.46 0 0 0 .314-.124.42.42 0 0 0 0-.606l-1.001-.964c-.173-.166-.452-.166-.625 0a.42.42 0 0 0 0 .606l1.001.964zm7.789.124a.46.46 0 0 0 .315-.124l1.001-.964a.42.42 0 0 0 0-.606c-.173-.166-.452-.166-.625 0l-1.001.964a.42.42 0 0 0 0 .606.45.45 0 0 0 .31.124zM48.72 15.75l1.001-.964a.42.42 0 0 0 0-.606c-.173-.166-.452-.166-.625 0l-1.001.964a.42.42 0 0 0 0 .606c.084.081.199.124.315.124s.226-.043.31-.124zm2.259-1.587l2.304-.03 1.329 1.813a.46.46 0 0 0 .363.179c.022 0 .044 0 .071-.004a.44.44 0 0 0 .35-.294l.687-2.121 2.198-.657a.43.43 0 0 0 .306-.341.42.42 0 0 0-.182-.414l-1.879-1.28.027-2.219c.004-.162-.089-.311-.239-.384s-.332-.06-.465.038l-1.848 1.327-2.18-.713a.45.45 0 0 0-.456.102.41.41 0 0 0-.106.435l.74 2.103-1.378 1.775c-.102.132-.115.307-.04.448s.221.23.399.235z"/></g><g fill="#357960"><path d="M94.803 14.074l-.728.218-.229.703 5.13 4.94c.046.042.104.064.164.064s.118-.022.164-.064l.629-.608c.044-.042.067-.098.067-.158s-.023-.113-.067-.156l-5.13-4.94zm-3.657-7.86a.43.43 0 0 0 .443-.427v-1.36c0-.235-.195-.427-.443-.427s-.443.192-.443.427v1.361c0 .239.199.427.443.427zm-6.703 5.094h1.418c.244 0 .443-.192.443-.427s-.199-.427-.443-.427h-1.418c-.244 0-.443.192-.443.427s.199.427.443.427zm2.655-3.724a.45.45 0 0 0 .31.124c.111 0 .23-.043.315-.124a.42.42 0 0 0 0-.606l-1.001-.964c-.173-.166-.452-.166-.625 0a.42.42 0 0 0 0 .606l1.001.964zm7.79.123a.46.46 0 0 0 .315-.124l1.001-.964a.42.42 0 0 0 0-.606c-.173-.166-.452-.166-.625 0l-1.001.964a.42.42 0 0 0 0 .606.45.45 0 0 0 .31.124zm-8.167 8.044l1.001-.964a.42.42 0 0 0 0-.606c-.173-.166-.452-.166-.625 0l-1.001.964a.42.42 0 0 0 0 .606c.084.081.199.124.315.124s.226-.043.31-.124zm2.259-1.588l2.304-.03 1.329 1.813a.46.46 0 0 0 .363.179c.022 0 .044 0 .071-.004a.44.44 0 0 0 .35-.294l.687-2.12 2.198-.657a.43.43 0 0 0 .306-.341.42.42 0 0 0-.182-.414l-1.879-1.28.027-2.219c.004-.162-.089-.311-.239-.384s-.332-.06-.465.038l-1.848 1.327-2.18-.713a.45.45 0 0 0-.456.102.41.41 0 0 0-.106.435l.74 2.103-1.378 1.775c-.102.132-.115.307-.04.448s.221.23.399.235z"/></g><g fill="#fff" stroke="#9597a1"><path d="M18.436 40.706l-.005-.025c-.348-1.916-.766-3.157-1.28-4.683l-.672-2.053-.003-.01h0c-.203-.703-.947-1.115-1.661-.911L6.91 35.283c-.714.204-1.124.945-.92 1.648l2.272 7.85c.203.703.947 1.115 1.661.911l6.844-1.955c.334-.095.607-.312.775-.613l.894-2.417zm0 0l.007.024a1.26 1.26 0 0 1-.111.974l-.79 1.419.894-2.417z"/><path d="M20.361 45.046l.003-.025c.198-1.937.142-3.245.072-4.852l-.075-2.158v-.01h0a1.34 1.34 0 0 0-1.343-1.331h-8.225a1.34 1.34 0 0 0-1.343 1.331v8.168a1.34 1.34 0 0 0 1.343 1.331h7.121a1.29 1.29 0 0 0 .916-.377l1.532-2.077zm0 0v.025c0 .342-.133.662-.377.905l-1.154 1.147 1.531-2.077z"/></g><path d="M12.761 42.261h4.233m-2.117-2.103v4.206" stroke="#9597a1" class="B C"/><g class="D"><path d="M59.436 40.706l-.005-.025c-.348-1.916-.766-3.157-1.28-4.683l-.672-2.053-.003-.01h0c-.203-.703-.947-1.115-1.661-.911l-7.905 2.258c-.713.204-1.124.945-.92 1.648l2.272 7.85c.203.703.947 1.115 1.661.911l6.844-1.955a1.28 1.28 0 0 0 .775-.613l.894-2.417zm0 0l.007.025a1.26 1.26 0 0 1-.111.974l-.79 1.419.894-2.417z" fill="#0a0e0f"/><path d="M61.361 45.046l.003-.025c.199-1.937.142-3.245.072-4.852l-.075-2.158v-.01h0a1.34 1.34 0 0 0-1.343-1.331h-8.225a1.34 1.34 0 0 0-1.343 1.331v8.168a1.34 1.34 0 0 0 1.343 1.331h7.121a1.29 1.29 0 0 0 .916-.377l1.154-1.146.377-.931zm0 0v.026m0-.026v.026m0 0c0 .342-.133.662-.377.905l.377-.905z" fill="#171b1d"/><path d="M53.76 42.261h4.233m-2.117-2.103v4.206" class="B C"/></g><g stroke="#148761"><path d="M97.436 40.706l-.005-.025c-.348-1.916-.766-3.157-1.28-4.683l-.672-2.053-.003-.01h0c-.203-.703-.947-1.115-1.661-.911l-7.905 2.258c-.714.204-1.124.945-.92 1.648l2.272 7.85c.203.703.947 1.115 1.661.911l6.844-1.955a1.28 1.28 0 0 0 .775-.613l.894-2.417zm0 0l.007.025a1.26 1.26 0 0 1-.111.974l-.79 1.419.894-2.417z" fill="#0a0e0f"/><path d="M99.361 45.046l.003-.025c.198-1.937.142-3.245.072-4.852l-.075-2.158v-.01h0a1.34 1.34 0 0 0-1.343-1.331h-8.225a1.34 1.34 0 0 0-1.343 1.331v8.168a1.34 1.34 0 0 0 1.343 1.331h7.121a1.29 1.29 0 0 0 .916-.377l1.154-1.146.377-.931zm0 0v.026m0-.026v.026m0 0c0 .342-.133.662-.377.905l.377-.905z" fill="#171b1d"/><path d="M91.76 42.261h4.233m-2.117-2.103v4.206" class="B C"/></g><g clip-path="url(#B)" stroke="#171b1d" class="C"><path d="M13 74.667A6.67 6.67 0 0 0 19.667 68 6.67 6.67 0 0 0 13 61.333 6.67 6.67 0 0 0 6.333 68 6.67 6.67 0 0 0 13 74.667z"/><g stroke-width="1.5" class="B"><path d="M11.061 66a2 2 0 0 1 3.887.667c0 1.333-2 2-2 2M13 71.333h.007"/></g></g><g clip-path="url(#C)" class="C D"><path d="M54 74.667A6.67 6.67 0 0 0 60.667 68 6.67 6.67 0 0 0 54 61.333 6.67 6.67 0 0 0 47.333 68 6.67 6.67 0 0 0 54 74.667z"/><g stroke-width="1.5" class="B"><path d="M52.061 66a2 2 0 0 1 3.887.667c0 1.333-2 2-2 2M54 71.333h.006"/></g></g><g fill="#357960"><path d="M134.803 14.074l-.728.218-.229.703 5.13 4.94c.046.042.104.064.164.064s.118-.022.164-.064l.629-.608c.044-.042.067-.098.067-.158s-.023-.113-.067-.156l-5.13-4.94zm-3.657-7.86a.43.43 0 0 0 .443-.427v-1.36c0-.235-.195-.427-.443-.427-.243 0-.443.192-.443.427v1.361c0 .239.2.427.443.427zm-6.703 5.095h1.418c.244 0 .443-.192.443-.427s-.199-.427-.443-.427h-1.418c-.244 0-.443.192-.443.427s.199.427.443.427zm2.654-3.725a.45.45 0 0 0 .31.124c.115 0 .231-.043.315-.124a.42.42 0 0 0 0-.606l-1.002-.964c-.172-.166-.452-.166-.624 0a.42.42 0 0 0 0 .606l1.001.964zm7.789.124c.115 0 .231-.043.315-.124l1.001-.964a.42.42 0 0 0 0-.606c-.173-.166-.452-.166-.625 0l-1.001.964a.42.42 0 0 0 0 .606c.084.081.2.124.31.124zm-8.166 8.042l1.002-.964a.42.42 0 0 0 0-.606c-.173-.166-.452-.166-.625 0l-1.001.964a.42.42 0 0 0 0 .606c.084.081.199.124.314.124a.45.45 0 0 0 .31-.124zm2.259-1.587l2.304-.03 1.329 1.813c.085.111.222.179.364.179.022 0 .044 0 .071-.004a.44.44 0 0 0 .35-.294l.686-2.121 2.198-.657a.43.43 0 0 0 .306-.341c.026-.158-.045-.32-.182-.414l-1.878-1.28.026-2.219c.005-.162-.089-.311-.239-.384s-.332-.06-.465.038l-1.848 1.327-2.18-.713a.45.45 0 0 0-.456.102.41.41 0 0 0-.107.435l.74 2.103-1.378 1.775c-.102.132-.115.307-.04.448s.222.23.399.235z"/></g><g fill="#fff" stroke="#357960"><path d="M137.436 40.706l-.005-.025c-.348-1.916-.766-3.157-1.28-4.683l-.672-2.053-.003-.01h0c-.203-.703-.947-1.115-1.661-.911l-7.905 2.258c-.713.204-1.123.945-.92 1.648l2.272 7.85c.203.703.947 1.115 1.661.911l6.843-1.955a1.28 1.28 0 0 0 .776-.613l.894-2.417zm0 0l.007.024c.095.329.056.673-.111.974l-.79 1.419.894-2.417z"/><path d="M139.361 45.046l.002-.025c.199-1.937.142-3.245.073-4.852l-.075-2.158v-.01h0a1.34 1.34 0 0 0-1.343-1.331h-8.226a1.34 1.34 0 0 0-1.343 1.331v8.168a1.34 1.34 0 0 0 1.343 1.331h7.121c.348 0 .671-.133.916-.377l1.532-2.077zm0 0v.025c0 .342-.133.662-.378.905l-1.154 1.147 1.532-2.077z"/></g><g class="B C"><path d="M131.76 42.261h4.234m-2.117-2.103v4.206" stroke="#357960"/><g stroke-width="2"><path d="M4 92h17M7.187 96h10.625m-6.375 4h2.125" stroke="#000"/><g class="D"><path d="M45 92h17m-13.813 4h10.625m-6.375 4h2.125M52 128l4-4-4-4"/></g><g stroke="#000"><path d="M11 128l4-4-4-4m9 32H6"/><path d="M13 159l-7-7 7-7"/></g><g class="D"><path d="M62 152H48"/><path d="M55 159l-7-7 7-7"/></g><path d="M6 180H20" stroke="#000"/><path d="M47 180H61" class="D"/></g></g></g><defs><clipPath id="A"><path fill="#fff" d="M0 0h155v192H0z"/></clipPath><clipPath id="B"><path fill="#fff" transform="translate(5 60)" d="M0 0h16v16H0z"/></clipPath><clipPath id="C"><path fill="#fff" transform="translate(46 60)" d="M0 0h16v16H0z"/></clipPath><path id="D" d="M12.146 6.214a.43.43 0 0 0 .443-.427V4.427c0-.235-.195-.427-.443-.427s-.443.192-.443.427v1.361c0 .239.199.427.443.427z"/><path id="E" d="M15.887 7.708c.115 0 .23-.043.315-.124l1.001-.964a.42.42 0 0 0 0-.606c-.173-.166-.452-.166-.625 0l-1.001.964a.42.42 0 0 0 0 .606c.084.081.199.124.31.124z"/><path id="F" d="M7.72 15.75l1.001-.964a.42.42 0 0 0 0-.606c-.173-.166-.452-.166-.625 0l-1.001.964a.42.42 0 0 0 0 .606c.084.081.199.124.315.124s.226-.043.31-.124z"/><path id="G" d="M56.803 14.074l-.728.218-.229.703 5.13 4.94c.046.042.104.064.164.064s.118-.022.164-.064l.629-.608c.044-.042.067-.098.067-.158s-.023-.113-.067-.156l-5.13-4.94z"/><path id="H" d="M46.443 11.309h1.418c.244 0 .443-.192.443-.427s-.199-.427-.443-.427h-1.418c-.244 0-.443.192-.443.427s.199.427.443.427z"/></defs></svg>