<svg width="104" height="188" viewBox="0 0 104 188" fill="none" xmlns="http://www.w3.org/2000/svg">
<path d="M20.8872 11.4638C20.8906 12.7104 20.5822 13.94 19.9872 15.0527C19.2816 16.386 18.1969 17.5075 16.8546 18.2915C15.5123 19.0755 13.9654 19.491 12.3872 19.4916C11.0673 19.4948 9.76531 19.2036 8.5872 18.6416L2.88721 20.436L4.7872 15.0527C4.19214 13.94 3.88376 12.7104 3.88721 11.4638C3.88782 9.97327 4.32782 8.5123 5.15792 7.24458C5.98803 5.97685 7.17545 4.95243 8.5872 4.28606C9.76531 3.72405 11.0673 3.43281 12.3872 3.43606H12.8872C14.9715 3.54467 16.9402 4.37556 18.4163 5.76965C19.8924 7.16374 20.7722 9.02306 20.8872 10.9916V11.4638Z" stroke="#6E6E73" stroke-width="2" stroke-linecap="round" stroke-linejoin="round"/>
<path d="M47.4598 10.536L51.1178 2.43604C51.8454 2.43604 52.5433 2.7205 53.0578 3.22684C53.5723 3.73319 53.8613 4.41994 53.8613 5.13602V8.73598H59.0375C59.3026 8.73303 59.5652 8.78685 59.8071 8.89369C60.049 9.00053 60.2644 9.15784 60.4384 9.35474C60.6124 9.55164 60.7408 9.78343 60.8147 10.034C60.8886 10.2846 60.9063 10.548 60.8665 10.806L59.6045 18.9059C59.5383 19.3351 59.3168 19.7264 58.9807 20.0075C58.6446 20.2887 58.2165 20.4408 57.7754 20.4359H47.4598M47.4598 10.536V20.4359M47.4598 10.536H44.7162C44.2311 10.536 43.7659 10.7256 43.4229 11.0632C43.0799 11.4008 42.8872 11.8586 42.8872 12.336V18.6359C42.8872 19.1133 43.0799 19.5712 43.4229 19.9087C43.7659 20.2463 44.2311 20.4359 44.7162 20.4359H47.4598" stroke="#6E6E73" stroke-width="2" stroke-linecap="round" stroke-linejoin="round"/>
<mask id="mask0_8071_2735" style="mask-type:luminance" maskUnits="userSpaceOnUse" x="81" y="0" width="23" height="22">
<path d="M104 0H81V22H104V0Z" fill="white"/>
</mask>
<g mask="url(#mask0_8071_2735)">
<path d="M91.5415 3.66663H84.8332C84.3249 3.66663 83.8373 3.85978 83.4779 4.2036C83.1185 4.54741 82.9165 5.01373 82.9165 5.49996V18.3333C82.9165 18.8195 83.1185 19.2858 83.4779 19.6297C83.8373 19.9735 84.3249 20.1666 84.8332 20.1666H98.2499C98.7582 20.1666 99.2457 19.9735 99.6051 19.6297C99.9646 19.2858 100.167 18.8195 100.167 18.3333V11.9166" stroke="#6E6E73" stroke-width="2" stroke-linecap="round" stroke-linejoin="round"/>
<path d="M91.5415 3.66663H84.8332C84.3249 3.66663 83.8373 3.85978 83.4779 4.2036C83.1185 4.54741 82.9165 5.01373 82.9165 5.49996V18.3333C82.9165 18.8195 83.1185 19.2858 83.4779 19.6297C83.8373 19.9735 84.3249 20.1666 84.8332 20.1666H98.2499C98.7582 20.1666 99.2457 19.9735 99.6051 19.6297C99.9646 19.2858 100.167 18.8195 100.167 18.3333V11.9166" stroke="#6E6E73" stroke-width="2" stroke-linecap="round" stroke-linejoin="round"/>
<path d="M98.729 2.29171C99.1103 1.92704 99.6274 1.72217 100.167 1.72217C100.706 1.72217 101.223 1.92704 101.604 2.29171C101.985 2.65638 102.2 3.15099 102.2 3.66671C102.2 4.18244 101.985 4.67704 101.604 5.04171L92.4999 13.75L88.6665 14.6667L89.6249 11L98.729 2.29171Z" stroke="#6E6E73" stroke-width="2" stroke-linecap="round" stroke-linejoin="round"/>
</g>
<path d="M20.8872 47.4638C20.8906 48.7104 20.5822 49.94 19.9872 51.0527C19.2816 52.386 18.1969 53.5075 16.8546 54.2915C15.5123 55.0755 13.9654 55.491 12.3872 55.4916C11.0673 55.4948 9.76531 55.2036 8.5872 54.6416L2.88721 56.436L4.7872 51.0527C4.19214 49.94 3.88376 48.7104 3.88721 47.4638C3.88782 45.9733 4.32782 44.5123 5.15792 43.2446C5.98803 41.9768 7.17545 40.9524 8.5872 40.2861C9.76531 39.7241 11.0673 39.4328 12.3872 39.4361H12.8872C14.9715 39.5447 16.9402 40.3756 18.4163 41.7696C19.8924 43.1637 20.7722 45.0231 20.8872 46.9916V47.4638Z" stroke="#BEBEC2" stroke-width="2" stroke-linecap="round" stroke-linejoin="round"/>
<path d="M3.7085 78.5C3.7085 78.5 6.54183 72.8333 11.5002 72.8333C16.4585 72.8333 19.2918 78.5 19.2918 78.5C19.2918 78.5 16.4585 84.1667 11.5002 84.1667C6.54183 84.1667 3.7085 78.5 3.7085 78.5Z" stroke="#6E6E73" stroke-linecap="round" stroke-linejoin="round"/>
<path d="M11.5 80.625C12.6736 80.625 13.625 79.6736 13.625 78.5C13.625 77.3264 12.6736 76.375 11.5 76.375C10.3264 76.375 9.375 77.3264 9.375 78.5C9.375 79.6736 10.3264 80.625 11.5 80.625Z" stroke="#6E6E73" stroke-linecap="round" stroke-linejoin="round"/>
<path d="M3.7085 109.5C3.7085 109.5 6.54183 103.833 11.5002 103.833C16.4585 103.833 19.2918 109.5 19.2918 109.5C19.2918 109.5 16.4585 115.167 11.5002 115.167C6.54183 115.167 3.7085 109.5 3.7085 109.5Z" stroke="#9299A1" stroke-linecap="round" stroke-linejoin="round"/>
<path d="M11.5 111.625C12.6736 111.625 13.625 110.674 13.625 109.5C13.625 108.326 12.6736 107.375 11.5 107.375C10.3264 107.375 9.375 108.326 9.375 109.5C9.375 110.674 10.3264 111.625 11.5 111.625Z" stroke="#9299A1" stroke-linecap="round" stroke-linejoin="round"/>
<path d="M47.4598 46.536L51.1178 38.436C51.8454 38.436 52.5433 38.7205 53.0578 39.2268C53.5723 39.7332 53.8613 40.4199 53.8613 41.136V44.736H59.0375C59.3026 44.733 59.5652 44.7868 59.8071 44.8937C60.049 45.0005 60.2644 45.1579 60.4384 45.3548C60.6124 45.5517 60.7408 45.7834 60.8147 46.034C60.8886 46.2846 60.9063 46.548 60.8665 46.806L59.6045 54.9059C59.5383 55.3351 59.3168 55.7264 58.9807 56.0075C58.6446 56.2887 58.2165 56.4408 57.7754 56.4359H47.4598M47.4598 46.536V56.4359M47.4598 46.536H44.7162C44.2311 46.536 43.7659 46.7256 43.4229 47.0632C43.0799 47.4008 42.8872 47.8586 42.8872 48.336V54.6359C42.8872 55.1133 43.0799 55.5712 43.4229 55.9087C43.7659 56.2463 44.2311 56.4359 44.7162 56.4359H47.4598" stroke="#BEBEC2" stroke-width="2" stroke-linecap="round" stroke-linejoin="round"/>
<mask id="mask1_8071_2735" style="mask-type:luminance" maskUnits="userSpaceOnUse" x="81" y="36" width="23" height="22">
<path d="M104 36H81V58H104V36Z" fill="white"/>
</mask>
<g mask="url(#mask1_8071_2735)">
<path d="M91.5415 39.6666H84.8332C84.3249 39.6666 83.8373 39.8598 83.4779 40.2036C83.1185 40.5474 82.9165 41.0137 82.9165 41.5V54.3333C82.9165 54.8195 83.1185 55.2858 83.4779 55.6297C83.8373 55.9735 84.3249 56.1666 84.8332 56.1666H98.2499C98.7582 56.1666 99.2457 55.9735 99.6051 55.6297C99.9646 55.2858 100.167 54.8195 100.167 54.3333V47.9166" stroke="#BEBEC2" stroke-width="2" stroke-linecap="round" stroke-linejoin="round"/>
<path d="M91.5415 39.6666H84.8332C84.3249 39.6666 83.8373 39.8598 83.4779 40.2036C83.1185 40.5474 82.9165 41.0137 82.9165 41.5V54.3333C82.9165 54.8195 83.1185 55.2858 83.4779 55.6297C83.8373 55.9735 84.3249 56.1666 84.8332 56.1666H98.2499C98.7582 56.1666 99.2457 55.9735 99.6051 55.6297C99.9646 55.2858 100.167 54.8195 100.167 54.3333V47.9166" stroke="#BEBEC2" stroke-width="2" stroke-linecap="round" stroke-linejoin="round"/>
<path d="M98.729 38.2917C99.1103 37.927 99.6274 37.7222 100.167 37.7222C100.706 37.7222 101.223 37.927 101.604 38.2917C101.985 38.6564 102.2 39.151 102.2 39.6667C102.2 40.1824 101.985 40.677 101.604 41.0417L92.4999 49.75L88.6665 50.6667L89.6249 47L98.729 38.2917Z" stroke="#BEBEC2" stroke-width="2" stroke-linecap="round" stroke-linejoin="round"/>
</g>
<mask id="mask2_8071_2735" style="mask-type:luminance" maskUnits="userSpaceOnUse" x="44" y="70" width="17" height="17">
<path d="M61 70H44V87H61V70Z" fill="white"/>
</mask>
<g mask="url(#mask2_8071_2735)">
<path d="M52.4998 85.5833C56.4119 85.5833 59.5832 82.412 59.5832 78.5C59.5832 74.588 56.4119 71.4167 52.4998 71.4167C48.5878 71.4167 45.4165 74.588 45.4165 78.5C45.4165 82.412 48.5878 85.5833 52.4998 85.5833Z" stroke="#6E6E73" stroke-linecap="round" stroke-linejoin="round"/>
<path d="M52.5 74.25V78.5L55.3333 79.9167" stroke="#6E6E73" stroke-linecap="round" stroke-linejoin="round"/>
</g>
<mask id="mask3_8071_2735" style="mask-type:luminance" maskUnits="userSpaceOnUse" x="44" y="101" width="17" height="17">
<path d="M61 101H44V118H61V101Z" fill="white"/>
</mask>
<g mask="url(#mask3_8071_2735)">
<path d="M52.4998 116.583C56.4119 116.583 59.5832 113.412 59.5832 109.5C59.5832 105.588 56.4119 102.417 52.4998 102.417C48.5878 102.417 45.4165 105.588 45.4165 109.5C45.4165 113.412 48.5878 116.583 52.4998 116.583Z" stroke="#9299A1" stroke-linecap="round" stroke-linejoin="round"/>
<path d="M52.5 105.25V109.5L55.3333 110.917" stroke="#9299A1" stroke-linecap="round" stroke-linejoin="round"/>
</g>
<path d="M9.57256 136.1L13.2306 128C13.9582 128 14.6561 128.284 15.1706 128.791C15.6851 129.297 15.9741 129.984 15.9741 130.7V134.3H21.1503C21.4154 134.297 21.678 134.351 21.9199 134.458C22.1618 134.564 22.3772 134.722 22.5512 134.919C22.7251 135.116 22.8535 135.347 22.9275 135.598C23.0014 135.849 23.0191 136.112 22.9793 136.37L21.7173 144.47C21.6511 144.899 21.4296 145.29 21.0935 145.571C20.7574 145.853 20.3293 146.005 19.8882 146H9.57256M9.57256 136.1V146M9.57256 136.1H6.82902C6.34394 136.1 5.87872 136.29 5.53571 136.627C5.1927 136.965 5 137.423 5 137.9V144.2C5 144.677 5.1927 145.135 5.53571 145.473C5.87872 145.81 6.34394 146 6.82902 146H9.57256" stroke="#6E6E73" stroke-width="2" stroke-linecap="round" stroke-linejoin="round"/>
<path d="M9.57256 167.1L13.2306 159C13.9582 159 14.6561 159.284 15.1706 159.791C15.6851 160.297 15.9741 160.984 15.9741 161.7V165.3H21.1503C21.4154 165.297 21.678 165.351 21.9199 165.458C22.1618 165.564 22.3772 165.722 22.5512 165.919C22.7251 166.116 22.8535 166.347 22.9275 166.598C23.0014 166.849 23.0191 167.112 22.9793 167.37L21.7173 175.47C21.6511 175.899 21.4296 176.29 21.0935 176.571C20.7574 176.853 20.3293 177.005 19.8882 177H9.57256M9.57256 167.1V177M9.57256 167.1H6.82902C6.34394 167.1 5.87872 167.29 5.53571 167.627C5.1927 167.965 5 168.423 5 168.9V175.2C5 175.677 5.1927 176.135 5.53571 176.473C5.87872 176.81 6.34394 177 6.82902 177H9.57256" stroke="#E9E9EA" stroke-width="2" stroke-linecap="round" stroke-linejoin="round"/>
<path d="M53.9741 134.3V130.7C53.9741 129.984 53.6851 129.297 53.1706 128.791C52.6561 128.284 51.9582 128 51.2306 128L47.5726 136.1V146H57.8882C58.3293 146.005 58.7574 145.853 59.0935 145.571C59.4296 145.29 59.6511 144.899 59.7173 144.47L60.9793 136.37C61.0191 136.112 61.0014 135.849 60.9275 135.598C60.8535 135.347 60.7251 135.116 60.5512 134.919C60.3772 134.722 60.1618 134.564 59.9199 134.458C59.678 134.351 59.4154 134.297 59.1503 134.3H53.9741ZM47.5726 146H44.829C44.3439 146 43.8787 145.81 43.5357 145.473C43.1927 145.135 43 144.677 43 144.2V137.9C43 137.423 43.1927 136.965 43.5357 136.627C43.8787 136.29 44.3439 136.1 44.829 136.1H47.5726" fill="#6E6E73"/>
<path d="M47.5726 136.1L51.2306 128C51.9582 128 52.6561 128.284 53.1706 128.791C53.6851 129.297 53.9741 129.984 53.9741 130.7V134.3H59.1503C59.4154 134.297 59.678 134.351 59.9199 134.458C60.1618 134.564 60.3772 134.722 60.5512 134.919C60.7251 135.116 60.8535 135.347 60.9275 135.598C61.0014 135.849 61.0191 136.112 60.9793 136.37L59.7173 144.47C59.6511 144.899 59.4296 145.29 59.0935 145.571C58.7574 145.853 58.3293 146.005 57.8882 146H47.5726M47.5726 136.1V146M47.5726 136.1H44.829C44.3439 136.1 43.8787 136.29 43.5357 136.627C43.1927 136.965 43 137.423 43 137.9V144.2C43 144.677 43.1927 145.135 43.5357 145.473C43.8787 145.81 44.3439 146 44.829 146H47.5726" stroke="#6E6E73" stroke-width="1.4" stroke-linecap="round" stroke-linejoin="round"/>
<path d="M53.9741 165.3V161.7C53.9741 160.984 53.6851 160.297 53.1706 159.791C52.6561 159.284 51.9582 159 51.2306 159L47.5726 167.1V177H57.8882C58.3293 177.005 58.7574 176.853 59.0935 176.571C59.4296 176.29 59.6511 175.899 59.7173 175.47L60.9793 167.37C61.0191 167.112 61.0014 166.849 60.9275 166.598C60.8535 166.347 60.7251 166.116 60.5512 165.919C60.3772 165.722 60.1618 165.564 59.9199 165.458C59.678 165.351 59.4154 165.297 59.1503 165.3H53.9741ZM47.5726 177H44.829C44.3439 177 43.8787 176.81 43.5357 176.473C43.1927 176.135 43 175.677 43 175.2V168.9C43 168.423 43.1927 167.965 43.5357 167.627C43.8787 167.29 44.3439 167.1 44.829 167.1H47.5726" fill="#E9E9EA"/>
<path d="M47.5726 167.1L51.2306 159C51.9582 159 52.6561 159.284 53.1706 159.791C53.6851 160.297 53.9741 160.984 53.9741 161.7V165.3H59.1503C59.4154 165.297 59.678 165.351 59.9199 165.458C60.1618 165.564 60.3772 165.722 60.5512 165.919C60.7251 166.116 60.8535 166.347 60.9275 166.598C61.0014 166.849 61.0191 167.112 60.9793 167.37L59.7173 175.47C59.6511 175.899 59.4296 176.29 59.0935 176.571C58.7574 176.853 58.3293 177.005 57.8882 177H47.5726M47.5726 167.1V177M47.5726 167.1H44.829C44.3439 167.1 43.8787 167.29 43.5357 167.627C43.1927 167.965 43 168.423 43 168.9V175.2C43 175.677 43.1927 176.135 43.5357 176.473C43.8787 176.81 44.3439 177 44.829 177H47.5726" stroke="#E9E9EA" stroke-width="1.4" stroke-linecap="round" stroke-linejoin="round"/>
</svg>
