<svg width="32" height="32" viewBox="0 0 32 32" fill="none" xmlns="http://www.w3.org/2000/svg">
<rect width="32" height="32" rx="16" fill="#F5F5F7"/>
<path d="M14.5 10.75C14.5 10.3522 14.658 9.97064 14.9393 9.68934C15.2206 9.40804 15.6022 9.25 16 9.25C16.3978 9.25 16.7794 9.40804 17.0607 9.68934C17.342 9.97064 17.5 10.3522 17.5 10.75C18.3613 11.1573 19.0956 11.7912 19.624 12.584C20.1525 13.3767 20.4553 14.2983 20.5 15.25V17.5C20.5564 17.9663 20.7216 18.4128 20.9821 18.8036C21.2426 19.1944 21.5913 19.5186 22 19.75H10C10.4087 19.5186 10.7574 19.1944 11.0179 18.8036C11.2784 18.4128 11.4436 17.9663 11.5 17.5V15.25C11.5447 14.2983 11.8475 13.3767 12.376 12.584C12.9044 11.7912 13.6387 11.1573 14.5 10.75Z" stroke="#0E0E12" stroke-linecap="round" stroke-linejoin="round"/>
<path d="M13.75 19.75V20.5C13.75 21.0967 13.9871 21.669 14.409 22.091C14.831 22.5129 15.4033 22.75 16 22.75C16.5967 22.75 17.169 22.5129 17.591 22.091C18.0129 21.669 18.25 21.0967 18.25 20.5V19.75" stroke="#0E0E12" stroke-linecap="round" stroke-linejoin="round"/>
</svg>
